<?xml version="1.0" encoding="UTF-8"?>
<svg id="Layer_1" xmlns="http://www.w3.org/2000/svg" xmlns:xlink="http://www.w3.org/1999/xlink" version="1.1" viewBox="0 0 1940.6 1091.6">
  <!-- Generator: Adobe Illustrator 30.5.1, SVG Export Plug-In . SVG Version: 2.1.4 Build 3)  -->
  <defs>
    <style>
      .st0 {
        fill: #21a0fc;
      }

      .st1 {
        fill: #212d90;
      }

      .st2 {
        fill: #15b8fc;
      }

      .st3 {
        fill: #834548;
      }

      .st4 {
        fill: #030421;
      }

      .st5 {
        fill: #010101;
      }

      .st6 {
        fill: #2838a8;
      }

      .st7 {
        fill: #3f56ef;
      }

      .st8 {
        fill: #fbb15e;
      }

      .st9 {
        fill: #02dcfc;
      }

      .st10 {
        fill: #fccd5a;
      }

      .st11 {
        fill: #3e2137;
      }

      .st12 {
        fill: url(#linear-gradient2);
      }

      .st13 {
        fill: url(#linear-gradient1);
      }

      .st14 {
        fill: #14b9fb;
      }

      .st15 {
        fill: #fca35d;
      }

      .st16 {
        fill: #1f2989;
      }

      .st17 {
        fill: #60333f;
      }

      .st18 {
        fill: #fcc05b;
      }

      .st19 {
        fill: #080a2c;
      }

      .st20 {
        fill: #21a1fb;
      }

      .st21 {
        fill: #e4c68d;
      }

      .st22 {
        fill: #3c52e6;
      }

      .st23 {
        fill: #fb9c60;
      }

      .st24 {
        fill: #fc9c5f;
      }

      .st25 {
        fill: #3677fb;
      }

      .st26 {
        fill: #6c3941;
      }

      .st27 {
        fill: #2992fb;
      }

      .st28 {
        fill: #070d34;
      }

      .st29 {
        fill: #fbbd5d;
      }

      .st30 {
        fill: #f8c773;
      }

      .st31 {
        fill: #cd6c57;
      }

      .st32 {
        fill: #25339e;
      }

      .st33 {
        fill: #8e4c4a;
      }

      .st34 {
        fill: #2835a5;
      }

      .st35 {
        fill: #fb8d60;
      }

      .st36 {
        fill: #b56052;
      }

      .st37 {
        fill: #edcd89;
      }

      .st38 {
        fill: #a95a50;
      }

      .st39 {
        fill: #fcc25b;
      }

      .st40 {
        fill: #327efa;
      }

      .st41 {
        fill: #fb945f;
      }

      .st42 {
        fill: #3e67fb;
      }

      .st43 {
        fill: #3f58f0;
      }

      .st44 {
        fill: #ca6b57;
      }

      .st45 {
        fill: #050728;
      }

      .st46 {
        fill: #e0775b;
      }

      .st47 {
        fill: #fb8861;
      }

      .st48 {
        fill: #fc9460;
      }

      .st49 {
        fill: #bf6554;
      }

      .st50 {
        fill: #3a6ffb;
      }

      .st51 {
        fill: url(#linear-gradient);
      }

      .st52 {
        fill: #1ea7fb;
      }

      .st53 {
        fill: #e9c98f;
      }

      .st54 {
        fill: #222d93;
      }

      .st55 {
        fill: #3245c5;
      }

      .st56 {
        fill: #08cffa;
      }

      .st57 {
        fill: #18b0fb;
      }

      .st58 {
        fill: #3446ca;
      }

      .st59 {
        fill: #fcb75b;
      }

      .st60 {
        fill: #fbab5f;
      }

      .st61 {
        fill: #e8cd86;
      }

      .st62 {
        fill: #171e70;
      }

      .st63 {
        fill: #3a70fb;
      }

      .st64 {
        fill: #e2c48a;
      }

      .st65 {
        fill: #d57158;
      }

      .st66 {
        fill: #212b8c;
      }

      .st67 {
        fill: #e8c281;
      }

      .st68 {
        fill: #1f1032;
      }

      .st69 {
        fill: #239bfb;
      }

      .st70 {
        fill: #542d3c;
      }

      .st71 {
        fill: #fcbe5c;
      }

      .st72 {
        fill: #fba45f;
      }

      .st73 {
        fill: #b35f51;
      }

      .st74 {
        fill: #2499fb;
      }

      .st75 {
        fill: #2a8efa;
      }

      .st76 {
        fill: #0dc6fa;
      }

      .st77 {
        fill: #e6c487;
      }

      .st78 {
        fill: #2991fb;
      }

      .st79 {
        fill: #763f45;
      }

      .st80 {
        fill: #fcb75c;
      }

      .st81 {
        fill: #fc9e5f;
      }

      .st82 {
        fill: #233096;
      }

      .st83 {
        fill: #3d54e9;
      }

      .st84 {
        fill: #3141bf;
      }

      .st85 {
        fill: #48273a;
      }

      .st86 {
        fill: #11bffb;
      }

      .st87 {
        fill: #374ad2;
      }

      .st88 {
        fill: #435efb;
      }

      .st89 {
        fill: #d5725a;
      }

      .st90 {
        fill: #2b3bb1;
      }

      .st91 {
        fill: #2d3eb7;
      }

      .st92 {
        fill: #773f45;
      }

      .st93 {
        fill: #1b257e;
      }

      .st94 {
        fill: #0e163f;
      }

      .st95 {
        fill: #445cfa;
      }

      .st96 {
        fill: #2794fb;
      }

      .st97 {
        fill: #2a39ac;
      }

      .st98 {
        fill: #08d0fc;
      }

      .st99 {
        fill: #eed07b;
      }

      .st100 {
        fill: #20a2fb;
      }

      .st101 {
        fill: #3a4fdf;
      }

      .st102 {
        fill: #0a0b34;
      }

      .st103 {
        fill: #fcc85b;
      }

      .st104 {
        fill: #fb8661;
      }

      .st105 {
        fill: #331b35;
      }

      .st106 {
        fill: #090d3a;
      }

      .st107 {
        fill: #020211;
      }

      .st108 {
        fill: #2c8af9;
      }

      .st109 {
        fill: #0bcafc;
      }

      .st110 {
        fill: #6b3942;
      }

      .st111 {
        fill: #3592ff;
      }

      .st112 {
        fill: #ed7c5d;
      }

      .st113 {
        fill: #964f4b;
      }

      .st114 {
        fill: #05092e;
      }

      .st115 {
        fill: #dfc691;
      }

      .st116 {
        fill: #9006ff;
      }

      .st117 {
        fill: #0ec5fc;
      }

      .st118 {
        fill: #e3795b;
      }

      .st119 {
        fill: #11c0fb;
      }

      .st120 {
        fill: #fcab5e;
      }

      .st121 {
        fill: #f27f5f;
      }

      .st122 {
        fill: #d97359;
      }

      .st123 {
        fill: #249afc;
      }

      .st124 {
        fill: #44a0bf;
      }

      .st125 {
        fill: #0acefc;
      }

      .st126 {
        opacity: .7;
      }

      .st127 {
        fill: #fcc95b;
      }

      .st128 {
        fill: #07d3fc;
      }

      .st129 {
        fill: #9f554d;
      }

      .st130 {
        fill: #bf6454;
      }

      .st131 {
        fill: #fefefe;
      }

      .st132 {
        fill: #05d5fc;
      }

      .st133 {
        fill: #04d8fc;
      }

      .st134 {
        fill: #425af6;
      }

      .st135 {
        fill: #fcc65c;
      }

      .st136 {
        fill: #814447;
      }

      .st137 {
        fill: #0c1145;
      }

      .st138 {
        fill: #2c8bfa;
      }

      .st139 {
        fill: #9e534d;
      }

      .st140 {
        fill: #17b5fb;
      }

      .st141 {
        fill: #fcb15d;
      }

      .st142 {
        fill: #f27f5e;
      }

      .st143 {
        fill: #1caafc;
      }

      .st144 {
        fill: #fcc15b;
      }

      .st145 {
        fill: #040420;
      }

      .st146 {
        fill: #3648cf;
      }

      .st147 {
        fill: #e7be84;
      }

      .st148 {
        fill: #2f85fb;
      }

      .st149 {
        fill: #394dda;
      }

      .st150 {
        fill: #24329a;
      }

      .st151 {
        fill: #fbb25c;
      }

      .st152 {
        fill: #fb8960;
      }

      .st153 {
        fill: #14b8fb;
      }

      .st154 {
        fill: #ebc67f;
      }

      .st155 {
        fill: #e1785c;
      }

      .st156 {
        fill: #180d2f;
      }

      .st157 {
        fill: #fbb05e;
      }

      .st158 {
        fill: #1aadfb;
      }

      .st159 {
        fill: #fdcd5a;
      }

      .st160 {
        fill: #18b2fb;
      }

      .st161 {
        fill: #fca85e;
      }

      .st162 {
        fill: #8b4a49;
      }

      .st163 {
        fill: #e77b5e;
      }

      .st164 {
        fill: #281533;
      }

      .st165 {
        fill: #337dfb;
      }

      .st166 {
        fill: #0c0d44;
      }

      .st167 {
        fill: #a75851;
      }

      .st168 {
        fill: #050910;
      }

      .st169 {
        fill: #2734a0;
      }

      .st170 {
        fill: #0d0305;
      }

      .st171 {
        fill: #10175b;
      }

      .st172 {
        fill: #fcb85c;
      }

      .st173 {
        fill: #3042c2;
      }

      .st174 {
        fill: #02ddfc;
      }

      .st175 {
        fill: #e8b67d;
      }

      .st176 {
        fill: #fcc75b;
      }

      .st177 {
        fill: #fc9d5f;
      }

      .st178 {
        fill: #1ca9fb;
      }

      .st179 {
        fill: #2e3eb8;
      }

      .st180 {
        fill: #fc9261;
      }

      .st181 {
        fill: #394dd9;
      }

      .st182 {
        fill: #fcaa5e;
      }

      .st183 {
        fill: #0cc9fc;
      }

      .st184 {
        fill: #192277;
      }

      .st185 {
        fill: #11c0fc;
      }

      .st186 {
        fill: #070b35;
      }
    </style>
    <linearGradient id="linear-gradient" x1="-8.6" y1="419.6" x2="1339.1" y2="419.6" gradientTransform="translate(16.3 133.2) rotate(-.3)" gradientUnits="userSpaceOnUse">
      <stop offset="0" stop-color="#3592ff"/>
      <stop offset="1" stop-color="#9006ff"/>
    </linearGradient>
    <linearGradient id="linear-gradient1" x1="1482.1" y1="557" x2="1929.6" y2="557" gradientUnits="userSpaceOnUse">
      <stop offset="0" stop-color="#000" stop-opacity="0"/>
      <stop offset="1" stop-color="#000"/>
    </linearGradient>
    <linearGradient id="linear-gradient2" x1="697.7" y1="657.1" x2="1252.2" y2="657.1" gradientTransform="translate(-685.8 -111.3)" xlink:href="#linear-gradient1"/>
  </defs>
  <rect x="12.2" y="11.6" width="1920" height="1080"/>
  <g id="Generative_Object" class="st126">
    <path class="st116" d="M1931.5,285.3l-73,30.2c-68.2,27.9-134.5,58.3-201,90.5-77.3,37.5-151.7,78.9-222.5,127.2l-37.5,26.8c.4,3.3-1.9,6.1-7.2,8.3l-34.4,27.6-3.5-1c-49.9,40-119.8,109.5-123.2,174.3l.2,2,.6,8.6c-.4,2.6-.8,3.2-1.2,1.8,1.1,40.2,19.1,75.7,59.9,90.2,4.1,3.2,3.3,3.7-.6,5.7-56.3,17-113.4-11.3-131.4-68.4-6.6-20.8-7.6-41.6-4.3-63.2,8.6-56.8,40.4-106.4,78.4-148.7,26-28.9,53-55.7,83-79.4l42.7-33.8c41.5-32.8,86.1-60.7,131.9-88.7,44.5-27.2,89.5-51.4,135.7-75.8,100.3-51.1,201.7-97.3,306.7-141.1l.9,106.8Z"/>
    <path class="st111" d="M1359.6,830.2c-20,22-44,39.2-71.7,47.5l1.5-2.2c-24-8.7-43.9-24.8-54.5-48.1-7.3-16.1-9.4-44.8-7.2-47.2.4-.4,1.8-.3,2.2-.1.6,8.9,4.1,18,10.2,25.5,15.5,18.8,50.1,9.2,71.5-8,56.1-45.1,59.5-136.4,40.7-202.5l36.2-29.1,8.9-5.9c31.4,88.7,27.1,198.4-37.9,270.1Z"/>
    <path class="st124" d="M1229.4,771.5l-.2-2,.2,2Z"/>
    <path class="st51" d="M1356.3,484.1c-62.4-83.8-157.4-125.3-262.3-122.1-85.3,2.7-165.6,34.5-237.3,79.6l-122.3,76.8c-26.4,16.6-52.7,30.8-80.4,44.6l-50.7,21c-53.7,16.5-109.5,23-163.4,4,48.1-65.8,84.3-143.3,80.7-223.9-1.1-25.1-7.3-49.2-22.3-69-19.3-25.4-51.4-34.1-81.9-26.5-23.2,5.8-41.8,18.3-60.2,33.7-39,36.7-63.2,86-67.4,139.9-5.2,66.3,23.9,129.5,79.2,168.2-47,51.5-102.6,92.4-165.7,122.3-61.3,29.1-125,50.3-190.8,66.6l-.4,38.2c67.6-15.7,131.9-36.8,194.8-64.3,77.3-35,140.7-79,198.6-141.6,84.2,33.8,173.6,22.1,255.6-13.7,25.2-11,48.7-22.3,72-36.8l98.3-60.8c30.3-18.8,58.9-37.3,90.4-54.1,70.5-37.7,147.1-60.4,227.2-48.7,63.5,9.3,123.9,43.7,162.9,94.2,1.6,2.1,2.7,3.9,2.9,6.2,2.9,1.4,6,.3,9.3-3.6,10.3-7,24.6-18.4,33.8-26.8.7-.6,0-2.3-.5-3.4ZM400.9,570c-51.3-33.2-72.3-99.6-57.1-157.3,11.4-43.3,43.5-90,88.8-99.6,18.4-3.9,34.1,12.1,38.7,31.6,17.8,75.7-24.3,164.8-70.5,225.3Z"/>
  </g>
  <rect class="st13" x="1482.1" y="22.4" width="447.6" height="1069.2"/>
  <rect class="st12" x="11.9" width="554.5" height="1091.6" transform="translate(578.3471 1091.5774) rotate(-180)"/>
  <g>
    <path d="M1138.4,0c3.6,1.2,6.3,4.1,8,8.8,2.9,3.3,3.7,6.2,2.4,8.7,1.7-1.1,2.2-.7,3.2.7,3.2,4.1,14.3,22.8,15.9,27.2,0,0,.6,2.7,1.9,8,.9-.3,2.3-.6,2.6,0,1.9,2.9,5,10.3,6.4,13.8,2.3,4.2,3.3,7.2,2.9,12,1-.1,2.4-.3,2.8.3,2.5,4.5,6.5,14.1,8.1,19.1,2,3.5,2,4.8.9,8.3,1,0,2.4-.2,2.8.5,2.2,4.7,12.4,32.1,12.5,35.5l-.7,5.2c.9-.2,2.4-.3,2.6.3,1.2,2.7,8.3,25.9,8.3,27.3-1.2,1.5-1.4,3.6-.7,6.1l2.3,1c3,11.3,5.1,22.7,6.1,34.4,4.3,8,4,16.9,3.4,25.6,1,.1,2.4.4,2.6,1.1,1.5,9.8,3.3,24.9,3,34.5-2,2.9-1.4,8.8-.3,12.4,3.8.7,3.5,11.2-.1,12.1,1.7,12.8,2,27.2,0,40.1,2.3,1.7,1.6,9.1,0,12.1.9.2,2.3.6,2.3,1.3,0,3.3-1.4,28.6-2.3,29.7s-1.5,1.4-2.6,1.6l1.7,8c-1.1,18.5-5.7,39.4-9.8,57.6-.3,1.2-.9,2.4-1.6,3.6s-1.5,2.3-2.4,3.4l2,1.7c-4.8,16.9-9.6,33.9-14.4,50.8l-2.7.7c0,1.8,0,3.5-.1,5.3s-.3,3.5-.9,5c-24.5,67.6-58.5,127.1-104.5,182.4-1.1,1.3-2.5,2.3-3.9,3.3s-3,1.9-4.5,2.8l-1.9,4.7c-15.7,20.1-34.8,37.8-54.1,54.6-1.2,1-2.7,1.8-4.2,2.5s-3.1,1.3-4.7,1.9c-1.8,2.9-3.7,5.7-6.2,8-10,9.1-32.6,27.6-44.2,31.8-1.6.6-3.3,1-5,1.4.3.5.5,1.1.5,1.6-.3,2.8-41.6,25.5-47.6,28.6-2.5,2.3-4.7,2.6-6.4.9l-1.1,2.8c-3.7.3-6.4,1.6-8.1,4-14.2,6.9-28.6,13.1-43,18.6l-1.4-1.1c.2.9.4,2.3-.2,2.6-4,2-12.4,4.7-16.9,6.1-4.1,2.4-7.3,2.7-9.6.9-.6.9-2.4,3.2-3,3.5-4.2,2.5-30.8,10.1-35.8,10.8l-2.3-1.9c-1.9,1.3-5.7,3.5-7.8,4.2-3.7,1.2-29.1,7.1-31.7,6.9s-2.9-.7-4-1.6l-.9,2.6-24.9,4.2-2-2.1c0,.6.1,1.2-.2,1.6-1.3,1.6-14.3,2.6-17.5,2.8-4.1,1.2-6.9.6-8.2-1.7-10.7,3.6-25.5,4.8-37.5,4.6-4,1-6.7.4-7.9-2l-3,2.4-26.9-.2-1.7-2.4c-2.9-.5-7.5-1.2-8.9,1.5-3.8.5-20.5-1.8-24.3-2.9s-.5-.7-.7-1.4c-2.6-.3-4.8.3-6.7,1.8-1.5.5-14.1-.5-13.9-3.8-2.1.6-4.7.4-7.9-.5-3.6,1.9-13.8,1.2-15.2-3.1-6.2.4-12.3,0-18.2-1.1l-1.2-2.7-9.2-1.2-.7-1.2c-.6,2.1-1.5,2.1-2.1,0-2,.5-4.1.9-6.2.8-4.4-.4-16.3-4.4-21-6-4.6-.5-7.3-2.1-8-4.8-7.6,0-15.3-1.7-22.9-5.1l-15.9-5.3-.6-2.8c-7,0-13.8-1.9-20.6-5.6l-.7-2.9c-2.5-.1-4.2-.8-5.1-2.1-.3.6-.8.6-1.2,0-2.7,1.3-4.2,0-5.6-2.9-1.2.3-2.4.6-3.5.5-5.9-.6-21.8-9.8-25.7-15-6.1-.6-11.8-2.8-17.2-6.5-3.5-1.1-5-2.8-4.7-5.3-1.9-.3-3.1-1.2-3.8-2.4-.2,1-.6,1-1.1,0l-5.3-2.5c-.6.7-1.1,1.3-1.4,1.2-5.6-1.9-24.7-13.9-30.4-17.9l-.3-3-5.8-.5c-13.6-7.8-27.1-15.5-40.5-23.2v-2.8c-.6.8-1.5,1.8-2.2,1.6-6.7-2.9-25.7-13.4-31.3-17.7l-.3-3-3,.6c-8.3-5.1-16.8-9.9-25.5-14.6l-.8-3.2-3.1,1c-1.1,0-17-10-17.4-11.2s0-1.2.1-1.8c-1.6.9-3.4-.4-4-1.9-.7,1-1,.8-1.1-.4l-2.7.8c-2.5-1-11-5.5-9.6-8.3-2.6,2-4.2,1.1-3.8-2.1-2.1-.4-3.3-1.1-3.8-2.2-.4,1-.7.9-.9-.2l-5.2-.3c-9.3-5.5-18.6-11-27.9-16.6l-.3-3-3.4.8c-6.9-4-13.8-8-20.8-12.1l-.3-3c-5.3-.5-14.9-3.1-15.3-9-1.9-2.6-4.7-4.3-8.3-5.2-2.4,2-6.7-.8-9-2.9-3.4-1-9.6-2.8-8.8-6.9-1.1-1.1-2.4-2-3.8-2.6-.2,1.1-.6,1-1.1,0-3.9-1.9-5.8-2.9-5.8-2.9-.5.8-1,1.4-1.6,1.4-1.4,0-22.1-12.4-24-13.9v-2.8c-3.3,2.1-10.8-2-9.9-5.9l-3.8-2.5c-2.5,3.4-5.4,0-5.9-3.3-1.1-116.5-1-239.2,0-356,2.5-1.5,5.9-.5,10,3,5.1,1.9,8.1,4.6,9.2,8.2.6-.8,1.5-1.8,2.1-1.6,4.8,2.1,23,12.2,26.6,15.3l.3,2.9c.6-.8,1.5-1.8,2.2-1.6,5.9,2.8,16.8,9,22.1,12.8,3.5,1.2,5.1,3.1,4.8,5.6.3-.5.7-1,1.1-1.2,1.8-.8,31.9,17.1,34.3,20.2s.2.9,0,1.6c.6-.8,1.5-1.8,2.1-1.6,2.8,1.2,20.4,11.4,20.9,13s0,1.2-.1,1.8c.6-.8,1.5-1.8,2.1-1.5,4.3,1.8,12,6.6,16,9.3,4.3,1.5,6.3,3.6,6.2,6.4l2.1-1.6c1.9.8,18.7,10.1,19.3,11s.5,2,.3,3l2.4-1.4c6,3.5,12,7.1,18.1,10.6l.3,3c.6-.8,1.5-1.8,2.1-1.6,3,1.3,15,8,17.3,10,2.1.7,3.3,2.3,3.5,4.9.6-.7,1.4-1.8,2.1-1.6,3,.9,13.3,6.5,12.4,9.8.6-.8,1.5-1.8,2.1-1.6,3.5,1.5,11.7,6.3,14.8,8.6l.2,3c.6-.8,1.5-1.8,2.1-1.6,2.4.9,8.2,4.4,10.6,6.1,4.2,1.4,6.2,3.5,6.1,6.3.5-1.4,2.8-.9,4.2-.4,5.5,1.9,14.7,8.7,18.2,13.3,3.6-3.1,10.8,3.2,12.3,7.3,2.7-2.9,12.4,2.9,11.8,6.7,1.5-3.5,10.9,2,9.7,5.5,5.4-1.6,15,4.7,17,9.8,2.3-3.2,9,1.9,8.4,4.9,3.4-2.2,10.8,2.2,10.9,6.1,3.6-1.4,6.4-.6,6,3.6,3.3-2.4,13.1,3.4,12.4,7.4l2.7-1.2c10.8,6.3,21.7,12.5,32.5,18.8l.3,3,.9-1.2c16.6,8.3,32.9,17.5,49.1,27.3l.7,3.2c1.2,0,2.4,0,3.5.2,5.1.8,26.9,13.2,33.2,17,1.9,1.2,3.4,2.9,4.7,4.8l2.9-.5c11.2,4.2,22.9,8,34.9,11.6l4.2,3.5,1.5-2.2c1.8.1,18.5,3.3,19.1,4s1.2,1.6,1.2,2.7c10.5.2,21.1.6,31.7,1.2l4.8,2.6c7.5-2.4,15.6-3.3,24.3-2.5,8.5-1.3,16.7-1.2,24.4.4,8.5-3.8,17.7-6.3,27.5-7.6,8.2-3,16.4-4.5,24.5-4.5l2.7-2.6c19.1-7.6,37.6-16.6,55.3-27.2,5.7-4.7,11.9-7.8,18.4-9.5l3.7-5.8c46.6-35.5,81.7-85.9,97.8-142.4l4-5.7c-.1-2.2.3-3.8,1.2-4.9-2.1-1.3-2.4-3.6-.9-7,.2-5.3,1.7-8.6,4.6-9.7-.1-2.8.1-5.3.8-7.6.3-2.5.7-4.9,1.3-7.1-1.1-.2-1-.5,0-.9-.6-12.7-.6-25.7-.2-38.9l2.4-5.2-.8-12.4c-3.2-.2-3.4-1.8-.5-4.8-1.1.5-2.4-1.1-2.7-2.1-1-2.9-2.7-13.5.6-14.7-1.2-1.9-1.1-4.2-.9-6.4-3.8.7-4.3-5.3-1.3-7-1-1-1.4-2.7-1.2-5.1-3.8.3-6-9.7-2.7-11.4-3.6-4.2-5.9-9.6-7-16.1-2.9-5.8-4.3-11.5-4.1-17-.9.3-2.2.6-2.7,0-1.9-2.4-10.8-21.7-12-25.4l1.4-2.6c-.8,0-4-1.9-4.2-2.3-5.6-7.9-12.6-18.8-17.3-27.3s-1.1-3.8-1.2-5.7l-1.6.5c-8.5-9.9-17.4-19.6-26.6-29.1l.6-2.9-2.7.8c-8.8-8.6-18-17-28.4-24.1l-1.1-3.9c-7.9-2.2-18.2-8.3-25.1-13.4l-2.6-4.3c-2.5-.2-5.3-.7-7.6-1.6-5.3-2.1-34.9-19-38.9-22.5s-3.7-4.1-4.7-5.5l-2.4,1.4c-12.3-7.1-24.5-14.2-36.8-21.3l-.3-3c-6.6-.1-13.6-3.1-17-9.1-3.3,2.4-8.7-2.6-9.9-5.9-2.1-.8-1.6-1,.5-1.5h491.8Z"/>
    <path d="M1940.6,373.6c-.9,3.2-3.4,5.4-7.5,6.8-4.6,3.4-9.5,5.1-14.5,5.1.3.5.5,1.1.5,1.6-.1,1.4-13.9,9.3-16.2,10.3l-2.7-1.3c.1.9.2,2.4-.2,2.9-2.2,2.6-13,7.9-16.9,7,2.3,2.9-5.5,7.2-7.8,4.5-.2,1-2.1,3.9-2.5,4.3-3.2,2.5-11.6,8.1-14.9,5.9,1.8,3.4-4.2,5.8-7.2,5.8-.3,2.9-2.7,3.2-5,1.5,1.5,4.3-4.1,4.8-7.1,3.6.4.6.2,2.5-.2,2.9-2.4,2.8-16,9.5-20.1,9,0,3-2.7,5.5-7.9,7.3-1.3,1.3-2.9,1.3-4.8,0,.3.5.5,1.1.5,1.6-.2,3.1-10.5,5.8-13.5,5.9,1.3,5.1-8,6.7-12.3,7.1,1,5.1-4.9,5.1-8.4,5,1.8,3.6-8.2,8.3-10.9,6,.3.9.8,2.3.3,2.6-2.8,1.9-25,15.2-26.5,15.4s-1.9-.6-2.7-1.2c.3.5.4,1,.3,1.2-2,3.2-16.8,11.4-21,13.5-3.3,2.8-6.1,3.5-8.4,2,1.1,1.6.3,3-2.3,4.2-3.6,2.5-31.3,19.8-33.2,19.2s-1.7-.8-2.5-1.4l.5,1.5c-3.9,1.3-6.2,3.1-7,5.4l-23.1,14.3-2.6.2c-3,1.5-4.4,3.1-4.4,4.7l-16.1,13.6-2.9-.8c-.8,3.8-3.1,6.6-6.8,8.3v1.9c-10.1,9.6-19.4,19.9-27.8,30.9l-3-.2c.7.6,1.7,1.7,1.4,2.2-4,7.3-11.4,18.5-16.5,25h-3c.5.4,1,.8,1.3,1.2,1,1.5-13.8,31.2-15.1,32.4s-1.9.6-3,.5c-.9,11-4.7,22-8.4,32.8l-2.9.9c.1,2.3-.3,3.9-1.3,5,2.3,2.7,3,4.1-1.2,4.6.1,2.2-.3,4-1.2,5.3l2.2,1.7c.3,1.4-1.7,16.3-5.1,15.6,1.8,4.2,1.4,6-1.3,5.6.8,3.5.6,6.6-.4,9.3-.7,2.5,0,4.7,1.7,6.7-1.5,17.1-1.1,34.3.8,51.3l-1.5,3.4c2,5.9,2.8,12.3,2.5,19.3l3.7,5.9c11.4,53.1,39,101.9,78,139.6l3.1,6.2,6.5,2.5c19.5,17.1,41.4,31.7,65,42.5,2.9,1.9,5.6,3.9,8.1,6.1h6.2c15.1,6.4,30.9,11,47,14.4l5.2,3.6,5.1-1.5c12.1,2.3,24.4,4.1,36.8,4.1l4.7,2.4c2.3,0,3.8-.9,4.5-2.6,13.7,0,27.3-.9,40.9-2.6l1.9,2.2,5.6-3.2c14.8-2.6,29.5-6.3,43.7-11.3l6.5.2c6.2-5,13.3-8.9,21.5-11.5,8.4-5,17-8.4,25.8-10.2v69.8s-671.7,0-671.7,0c-2.7-2.2-5.2-4.6-7-7.6-11.8-19.1-22-42.7-30.7-63.5-8.1-19.4-17-41.5-21.9-61.8s-.7-6.9-.4-10.4c-8.8-19-13-41.7-16-62.6-.2-1.2,0-2.5.3-3.9s.6-2.7,1.1-4c-2.9-5.5-4.5-11.6-4.8-18.3l2.2-2c-1.9-6.8-2.6-13.8-2.2-20.9-4.1-.2-4.1-5.9-.4-7l-1-.5-.9-28c-.6-16.7-.7-33.2-.4-49.7l2.5-1.6c-.7-14.1.4-27.9,2.2-42.2l2.6-1.5c1-3.6.7-6.3-.9-8.1,2.7-13.8,5.4-27.7,8.3-41.4l2.7-1c-.9-.7-1.8-1.4-1.8-2.6,0-1.8,3.2-13.2,4-15.8.3-4.8,1.8-7.6,4.6-8.5v-7.7c5-14.1,9.9-28.3,14.7-42.4l2.8-.6-.9-4.2c4.1-9.8,8.2-19.5,12.3-29.3l2.9-.7c-.6-.9-1.3-2-1.2-3,.3-2.2,13.2-27.1,15.3-30.5,1-3.7,2.8-5.4,5.4-5.3-2.1-2.3-1.1-5.1,3-8.6,1.1-4,4-12.4,8.6-12,3.2-9.4,8-18.1,14.5-26.3,2.1-4.7,4.7-7.1,7.8-7.1l.2-4.2c5.5-7.3,10.9-14.6,16.4-21.9h3c0,0-1-2.5-1-2.5l14.3-17.2,3,.2-.7-2.9c.1-1,12.1-14.1,12.9-14.5s2,0,2.9.4v-3.5c.8-1.3,19.8-21.1,21.3-21.4s2-.1,3,.5v-3.3c10.2-8.9,20.4-17.8,30.6-26.7l2.7.9-.2-2.7c2.5-.5,3.8-1.5,4.1-3.2,13.2-9.7,26.4-19.5,39.5-29.2l2.6,1.1c-.5-.9.4-1.7,2.7-2.2-.3-.9-.5-1.7-.2-2.3.5-.9,15.1-9.9,16.9-10.8l2.8,1.1c.5-1.8,2.4-2.8,5.5-3.2l3.9-2c-.2-.6.3-1,1.4-1.1-.4-.9-.8-2.3-.3-2.7,3.5-2.3,28.4-16.7,30.1-16.3s1,.5,1.5,1c-.4-.9-.9-2.2-.3-2.6,2.5-1.8,20.1-12.4,21.7-12s1,.5,1.5,1l7.6-5.3c1.5-3.2,8.6-8.3,11.8-5.8,0-1.1.4-1.1,1-.1,1.7-.3,3-1,3.7-2.3-.4-.9-.8-2.3-.3-2.6,5.5-3.7,25.3-16,31-18s4.7-1.5,6-.7v-2.8c6.2-3.6,12.5-7.2,18.7-10.7l2.7,1.3-.2-2.5c7.4-4.3,14.8-8.7,22.2-13l2.5.4,4.3-4.1c16.2-10.1,32.8-19.4,49.7-27.9l1.5,1c-.3-.5-.5-1-.5-1.6-.1-1.3,19.3-12.9,22.1-14l2.7,1.2c-.3-.5-.5-1.1-.5-1.6,0-1,12.5-8.3,14.8-9.3,3-2.6,5.5-3.1,7.6-1.5-.4-1.8,1.2-3.6,2.9-2.5h.5c-.3-1,.7-1.8,3.1-2.4.3-2.8,14.9-11.1,15.8-11s1.9.5,2.7,1.3c1-2.1,2.8-3.6,5.4-4.4-.2-.7-.4-1.3-.1-1.5,2.4-1.9,20.2-12,22.1-11.8s1,.4,1.5,1v-2.8c7.1-4.8,18.7-11.2,26.3-15.1s1.6,0,2.4.5c-.2-.9-.6-2.3,0-2.8,3.1-2.3,20.4-11.9,23.8-13l2.7,1.3c-.3-1.1,0-1.2,1-.3,1.5-.4,2.8-1.1,3.9-2.2-1.4-3.5,6-7.4,8.4-4.7,1.3-.7,2.6-1.6,3.6-2.6.2-1.1.5-1.1,1,0,1.6-.5,2.9-1.3,4-2.4-.5-2.8,1.9-5.1,7-7.2,3.3-3.1,6.2-3.9,8.6-2.4-1.4-3.3,2.8-5,4.9-2.3,1.5-.7,2.7-1.6,3.6-2.7-2.2-3.1,7.5-8.2,9.9-5.4v-2.8c5.9-3.3,11.7-6.5,17.6-9.8l2.7,1.3,3.8-2.4,3.6-2.4c.4-1.4.8-1.2,1.2.7v355.8Z"/>
    <path d="M620.6,0c4.8,1.9,9.5,4.2,14.1,6.8l.2,2.9c3.1-2,11.9,3.4,14.2,5.6,1.3.4,1.9,1.6,1.6,3.8.5-.8,1.2-1.6,2.1-1.6s13.5,6.6,11.3,9.3l1.9-1.7c13.8,8,27.7,16,41.5,24v2.8s2.5-1.4,2.5-1.4c15.3,8.8,30.7,17.6,46,26.5v2.8c1-.8,1.6-.8,1.9,0,2.1.2,3,.9,2.8,2.1l4.7.2c4.3,2.2,20.2,12.4,21.4,15.5s.5,1.7.6,2.5l3.4-.3c7.5,6.2,15,12.3,22.5,18.5l-.3,2.9,4.2,1.1c7.3,8.3,14.6,16.7,22,25l-.9,2.7c1.1.1,2.1.3,2.9.8,6.8,4.3,23.1,30.2,24.1,38.1s-.1,1.9-.5,2.9c.9-.3,2.2-.6,2.7,0,1.2,1.7,10.5,22.8,10.8,24.8.3,2,.3,4.1,0,6.2.9-.2,2.4-.3,2.6.4,2.7,7,7.8,24.6,7.9,31.4s-.4.7-1,1.1c.8.5,1.5,1,2.1,1.6,3.4,3.3,5.8,30,5.9,36.6l-2,4.3c1.5-.1,1.4,3.4.5,4.6.8,8.1,1,18.2-.4,26.6.9.2,2.3.6,2.3,1.2.3,3.6-.2,14.5-3.7,15.5.3,3.4,0,6.2-1.1,8.6,1.5,4.5.8,11.9-1.4,16.4s-.9.4-1.7.5c.4,1.2.7,2.4.8,3.6s.2,2.3,0,3.4c-10.7,49.2-45.3,106.4-84.3,138.2-.8.7-1.9,1.1-3,1.5s-2.3.7-3.6.9c-.5,1.2-1,2.4-1.7,3.5s-1.4,2.1-2.3,2.8c-16.4,13.1-44.1,31-63.9,37.4-3.6,1.2-6.9,1.6-10.8,1.7-.6.8-1.2,1.6-2,2.3-3.5,3.2-35.5,11.9-40,10.7s-1.9-.7-2.9-1.1l-6.2,1.5c.2,1.5-2.2.7-3.4,0,.4,3.6-6.2,4.3-7.3,1-11.8,1.8-23.7,2.4-35.9,1.8-.2,1-.5,1.7-.8,1.8-4,.4-13.7,1.1-15.3-2.4l-9.8-1.1c0,3.4-2.9,3-3.3-.3-1.2.2-2.3.8-3.4,1.8-9-1.7-18-3.5-27.1-5.2l-1.2-2.7c-2.2,1.8-3.4,1.4-3.7-1-.6,1-.9.9-.8-.4-2.2.6-4,.9-5.5.8l-22.5-7.2c-2.1-1.1-3.3-2.3-3.5-3.7l-7.5-1c-11.8-6.2-23.5-12.3-35-18.2l-.6-2.8c-1.9.6-3-1.1-3.1-2.9-1.2,2.1-2.7,1-2.3-1.1-.6.8-1.6,1.8-2.2,1.5-15.4-7.8-31.7-18.2-45.8-28v-1.5c-1.6-.6-3.1-1-4.4.3-9.2-5.3-18.4-10.6-27.6-15.9l-.3-3c-2.4,2.8-7.2-1.3-8.1-4.2-2.9-2.1-4.9-2.5-5.8-1.1-4.8-1.2-6.9-3.3-6.3-6-2.9,1.9-7.4-.6-6.7-4.2-4,1.7-13.5-3-13.2-7.5-4.5,1.1-14-3.4-14-8.3-3.3-.2-6.1-.9-8.6-2.1l-.2-2.9c-1.6-.9-2.9-.7-3.7.6-.9.1-14.7-7.5-12.9-10.4-4.7,1.2-11.1-1.7-12.2-6.7-1.1.9-3.6.4-4.9-.1-3.8-1.6-12.6-5.9-12.1-9.9l-3,1.1c-7.4-4.2-14.9-8.5-22.3-12.7l-.3-3c-3.3,2.3-8.6-1.1-8.3-5-3.8-.1-6.6-.8-8.1-4.6-3.7.6-7.7-.8-11.8-4.2-3.5-1.2-5-3-4.6-5.5-4.9-.1-14.2-2.6-14.5-8.3-2.9.9-18.5-6.5-19.2-8.1s-.6-1.9-.3-3c-1.1-.2-1.1-.5,0-1.1-2-2.2-3.2-3.2-6.4-3.2-2.4,2.8-10.1-2.3-13.3-4.4-3.7-1.1-5.6-3.1-5.6-5.8-.4.5-.8.8-1.1.8-4-.3-20.2-9.7-24.1-12.5l-.3-3c-8.6-2.8-16.7-6.7-24.5-11.7l-2.1-4c-.7.7-1.7,1.7-2.4,1.3-7.3-3.5-18.5-10-25.1-14.6l-.3-3-5.2-.2c-7.9-4.6-15.9-9.1-23.8-13.7l-.3-3c-11.4-4-22.5-9.5-33.3-16.5l-.3-3c-7.5-1.3-17.6-6.9-24-11.4l-1.8-3.5C.2,176.1.1,85.6,1.3,0h619.3Z"/>
    <path d="M1189,647.7c-5-2.4.9-10.4,3.5-4.3s-2.1,8.7-3.5,4.3Z"/>
    <path d="M1189,647.7c3.1.1,1.3,9.3-.9,10.9s-.8,0-1.5-.3c.9,3.7,1.2,7.4.7,11.1,4.9,2.5-.3,12.6-2.5,16.4,3.2,1.2,2.3,3.8-.9,4,.4,3.7-.3,7.1-2,10,.9.2,2.2.7,2.3,1.4,0,1.8-1.5,14.9-2.1,15.4s-1.5,1.3-2.6,1.4c1.8.7,1.5,4.9-.2,5.7-.4,4.4-.3,8.8,0,13.3l-2.4,5c3.4-.8,1.8,14.8,1.4,15.5s-1.1.6-2,.6c-.6,27.1-1.1,54.5.7,81.5l2.5.9c1.2,13.8,2,27.7,2.3,41.7l3,5.5c2.8,19.1,6.7,38.1,11.6,56.8,0,0,0,2.2.1,6.6l2.6.8c1.2,7.9,3.8,16.4,6.7,24.3,10.6,29.9,21.8,56.3,34.7,85.1,1,2.2,1.6,4.1-.2,5.9-.3,1.9.7,3.5,2.9,4.7l2.8.2c1,1.6,8.4,16.2,8.3,17.1s-.7,1.9-1.4,2.6H1.2c-1.1-145.5-1.1-298.2,0-443.9,2-3.3,8.3,1.4,7.4,4.8.7-.7,1.7-1.7,2.4-1.4,3.4,1.5,21.6,11.5,23.6,13.4s.3,1.1.2,2c2.3.9,3.4,1.8,3.5,2.9l1.3.4c4.1.6,6.5,2.1,7.4,4.5,2.8-2.9,9,2.2,10.8,4.9,4.5,1.1,8.3,3.7,11.3,7.7.6-.7,1.5-1.8,2.2-1.5,2.6,1,8,4.5,10.6,6.3,4.4,1.6,6.6,3.8,6.5,6.7.6-.8,1.5-1.8,2.2-1.5,5.3,2.4,24.6,13.2,28.6,16.6l.3,3c.6-.8,1.4-1.7,2.2-1.6,1.9.4,22.8,13,25.8,15.1s.5,1.9.4,2.9c.6-.8,1.5-1.8,2.1-1.6,5.5,2.3,22.9,12.3,27.3,15.9l.4,2.9c.6-.7,1.5-1.8,2.1-1.6,2.8,1.1,9,4.9,11.6,6.7,2.7,1.2,3.4,1.6,3.4,4.8.6-.8,1.5-1.8,2.2-1.6,4.9,2.3,26.1,13.9,29.3,16.9l.3,3c.6-.5,1.2-.6,2-.6,3,0,28.3,14.8,32.7,17.7l.3,3,1.9-1.7c7.6,3.8,33.8,17.9,38.6,22.7.9.9,1.6,1.9,1.7,3.3.6-.8,1.6-1.9,2.1-1.6,14.4,7.2,29.5,16.9,42.2,26.7,3.6-.6,9.6,1.9,9.6,5.9.8,1.3,2.1,2.2,3.8,2.7,1.8-3.6,10,1.1,10.4,4.8l2.3-1.5c7.1,3.6,14.3,7.1,21.4,10.7l.5,3c2.5-.1,5,0,7.3.9,10.4,3.6,22.8,9,31.5,15.3.4-.9,1.2-2.1,1.8-1.9,3.3.9,28,9,29.1,10.1s.9,1.8.9,2.9c.3-.7.6-1.2,1-1.3,1.1-.2,3.1.2,4.3.4,2,.4,18.5,4.4,19.9,5.1l1.2,2.7c6-.5,12.2.5,18.7,3l18.5,3.7,4.3,3.2c.1-.4.3-.7.5-.8,5-1.7,18.3,1.2,23.9,2.7s1.2,1.4,1.4,2.4c2-2.8,23.2-.4,24.9.6s1.2,1.6,1.4,2.6c7.9-2.8,21-2.3,27.9,2.2,0-.9.3-2.4.9-2.4,3-.2,24.1-.2,25.2.4s.7,1.1.9,2.1c8.9.4,17.8.3,26.5-.3l.9-2.5c11.8,0,23.7,0,35.5.5,0-.9.1-2.3.8-2.5,5.6-1.5,15.8-2,20.9.1.9-.7,1.8-1.4,2.9-2s1.9-1,2.9-1.2c12.2-2.4,24.4-3.7,36.7-4.6,1-2.1,3.1-3.1,6.4-3.1l18.6-4.7,6.8.8c-.2-.9-.3-2.3.3-2.6,2.8-1.4,10.3-3.3,13.7-4.1,4.3-1.8,6.7-1.7,10.9-.7.2-.9.6-1,1.2-.3,1.3-1.1,3.4-1.9,6.3-2.3-.2-2.9,1.2-2.9,2.1-.2.2-1.7,2-2.4,5.2-2-.3-.9-.4-1.8.2-2.6s15.6-5.8,17-4.4h3.5c-.3-1-.6-2.3,0-2.8,2-1.5,7.8-3.4,10.4-3.5l.4-1.2c12.6-5.4,25.1-10.9,37.7-16.3l2.3,1.7,5.5-5.1c19.3-9,37.5-20,55.3-31.7l7.3-1.9-.8-2.4c13.9-10.2,27.7-20.4,41.6-30.5l2.6,1.1c-.8-1-.5-1.5.7-1.2,1.1-2.7,2.3-5.4,5.4-3.4l2.7-4.3c15.5-14,30.7-28.3,45.6-43.1,7.4-9,15.6-16.8,24.6-23.3,1.2-3.1,2.4-6.3,4.5-9,13.9-18.1,27.5-36.1,41-54.6,2-2.7,4.7-4.9,7.3-6.9,2.8-1.6,5.1-3.8,6.9-6.6.6-6,1.9-9.7,7.7-5.1,6.9-4.2,14.5-1.7,18.8,4.8-2.3,3.2-2.1,4.7.5,4.6Z"/>
    <path d="M1940.6,1005.6c-.6,1-1.2,2.1-1.9,3-4.1,5-38.9,22.2-45.3,22.3-1.2,0-2.4-.2-3.5-.4-.8,1-1.7,1.9-2.6,2.7-7.1,5.9-38.3,12.1-49,13.4l-7-1.5c.1,3.5-6.5,4.4-7.4,1.4l-2.3-.2c-7.7.8-15.7,1.2-24,1.4,0,2.9-1.4,2.8-2.2,0-6.6-.2-13.1-.6-19.6-1.1-.4.9-.9,2.3-1.7,2.2-6.7-.2-19.3-1.8-25.9-3.2l-1.4-2.6c-2.5-.2-4.5-.7-6-1.5-.9.4-1.8.8-2.7,1.1s-1.8.4-2.6.3c-18.8-3.7-44.7-12.2-61-22.4l-.5-2.9c-2.7,1.2-3.8.8-3.3-1.3-3,0-4.4-.8-4.2-2.3-1.2,0-2.4,0-3.5-.3s-2.2-.4-3.1-1c-18.5-11.5-36.5-24-51.7-38.5l.4-1.8-2.5.7c-23.7-27.1-44.5-55.1-58.7-89.3-4.4-10.7-16-40.9-14.5-50.6.2-1.2.6-2.4,1-3.6-1-4.8-2.5-9-4.5-12.8-4-16.6-2.3-39.6-.9-56.6l1.8-3.2c-3.5-1.1-2.2-9.7.8-10.9l1.2-8.9c-.9-.5-2.1-1.2-2-1.9,1.8-10.6,5.5-25.8,8.6-36.1l2.7-1.9v-4.8c.1,0,17.6-41.1,17.6-41.1h2c-.1-4,1.1-5.9,3.8-5.9-.7-.6-1.7-1.6-1.4-2.2,1.1-2.1,12.4-19.4,13.4-20s2-.3,3-.1l.2-3.9c8.2-9.7,16.5-19.3,24.7-29l2.8.5c-.3-.5-.6-.9-.8-1.5-.5-1.8,25.8-23.9,28-25l2.9.7c-.4-.9-.9-2.2-.4-2.6,7.3-5.5,20.4-14.2,28.4-18.4,3.1.1,5.7-1.1,7.8-3.8l5.2-.7c-.4-.9-.8-2.3-.3-2.6,6.4-4.5,19.6-12,26.8-14.7s1.7-.2,2.4.6c-.4-.9-.8-2.3-.3-2.7,5.5-3.9,15.7-9.6,21.9-12.6,3.1-2.7,5.7-3.2,7.9-1.7.6-2.8,1.1-4.8,3.8-2.5l-.6-2.5c3.2-.8,6.7-1.9,10.4-3.3-2.2-2.8,11.9-10,12.7-9.9s1.9.5,2.7,1.3c-.8-3.8,7.4-8.7,10.7-6.4-2.1-3.3,11-9.7,12.6-9.3s1,.5,1.5,1c-1.3-3.6,7.8-8.7,10.4-6-.6-3.2,6.3-8,9.1-5.1l2.3-2.9c4.6-3.8,10-7.3,16.2-10.3l2.7,1.2c-1.5-3,6.4-7.3,9.3-8.4l2.7,1.2c-1.1-4.1,7.1-7.8,10.5-6-.9-4.1,8.1-8.5,11.3-6.6.7-4.6,8.9-9.3,13.3-8.2l4.4-2.8c0-3.4,8.6-8.3,11.6-5.6-1.6-3.6,9.3-9.7,12.2-7.2l-.3-2.6c2.5-2.1,20.7-12.3,23.3-12.6s1,.4,1.5,1c.9-3.7,6.2-7.3,9.4-4.2v616.6Z"/>
    <path d="M1154.8,0h785.8s0,2.8,0,2.8c-3.1,3.1-11.5,9.4-15.4,6.9-1.5.6-2.8,1.4-3.9,2.6.8,2.2-.4,3.8-3.6,5-2.1-.4-4.5.3-7.3,2.2.5,2.3-.8,2.8-3.8,1.6.2.9.6,2.4,0,2.8-2.3,1.6-21,12.6-22.4,12.8s-2.3,0-3.4-.8c.3.9.6,2.3,0,2.8-2.1,1.9-31,18.8-33.2,19.4-1.5.9-3,1.1-4.3-.3,1.5,3.4-7.5,8-10.1,5.3-1.6.6-3,1.4-4.1,2.6l-.5,2.8c-3.3,1.4-6.9,2.7-10.7,4.1.6,2.6-.4,3.5-3.3,2.6-1.1,1.4-2.8,2.1-5.2,2.1.4.9.8,2.2.3,2.6-1.6,1.2-15.5,9.2-17,9.6-1.6.1-3.3.1-5,0,.5,2.7-1.8,4.9-6.8,6.8-5.5,3.5-11.4,6.6-17.7,7.4.3.9.6,2.3,0,2.8-3,2.2-13.8,8.7-17.2,9.9-2.9,1.1-5,1.5-8.1,1.9.4.9.8,2.2.3,2.6-2.1,1.8-12.1,7.2-14.7,7.7s-1-.4-1.5-1v2.8c-12,6.9-23.9,13.8-35.9,20.6l-2.7-1.2c.3,1,.6,2.4,0,2.8-7.4,5-17.8,10.7-25.8,14.9-3.9,3.2-7.9,4.5-11.9,4.1.3.9.6,2.4,0,2.8-8.6,6-19.9,11.8-29.4,16.1-1.8,2.6-5.3,5.4-8.1,3.1.7.9.5,1.1-.6.6-1.5,1.6-2.9,2.2-4.1,2.1v2.8c-1.3,1.1-13.1,7.9-13.9,8s-1.9-.6-2.7-1.3c.5.8,1,2.1.5,2.5-2.7,2.2-24.9,15.5-27,16s-1-.4-1.6-1.1c-3,3.2-5.2,4.4-9.7,4.9-.3,2.1-2,3.6-5,4.4l-12.5,7.9-3.3-.8v2.8s-6.9,3.7-20.8,11.2c-3.5,2.7-6.2,3.5-8.1,2.3.4.9.8,2.2.3,2.6-9.8,7.1-23.1,13.9-34.6,17.6.4.9.9,2.2.4,2.6-2.4,2.1-18.3,12.1-21,13.1l-2.7-1.1.8,2.4c-12.8,9.4-25.6,18.8-38.4,28.2-1.7.7-3.3.8-4.8.5.4.9,1,2.2.5,2.8-6.3,6.3-17.7,16.4-24.8,21.4-2.2,2.8-4.5,3.8-7,2.8l.9,2.5c-8.6,7.9-16.8,16-24.8,24.5l-2.9-.5.8,2.7c-4.9,5.3-9.8,10.6-14.7,15.9l-2.9-.4v3.9c-5,6-10,12.1-15,18.1-2,1.2-4.1,2.4-6.3,3.8.6.8,1.5,1.9,1.1,2.6-4.2,6.7-13.9,20.4-19.1,25.9-2.6.9-4.7,2.9-6.3,6.1.5.8.8,1.8.3,2.6-1,1.9-6.5,10.1-7.8,11.6h-2.9c-2.5,3.2-6.9,4.2-9.1.2-5.8-1-9.9-.2-12.2,2.3,13,8.8-8.1,17.7-8.9,4.6,1.3-1.5,1.1-3.6-.6-6.4,1.6-2.3,2.1-4.7,1.4-7.3,2.7-6.5,2.5-11.6-.6-15.2,1.6-13.3,4.3-26.3,8-39.1,7.3.4,7.3-.2.2-1.7l-2.2-1.7c-3.7-.7-3.2-10.1.5-10.8.5-2.8,1.2-7.4-1-9.2l.9-15.9,2.5-1.6c.4-.9.5-1.7.5-2.7.7-13.5,1-30.4.2-43.8,0-.3-.7-.5-1.5-.7l-1.6-36.9,2.4-1.5c-1.5-.7-2.6-3.8-3.1-5.5-1.3-4.7-4-28.3-3.7-33.2l2.2-2-1.3-.7-1.3-12.8c-2.3-.5-2.3-1.4,0-2.1-3.3-4.2-4.6-8.5-4.1-12.7l-1.4-1.4c-2-9.7-4-19.3-6.1-29l2.1-1.9c-1.2-1.4-3.3-3.9-4-5.4-2-4-7.3-22.6-7.9-27.3l1.8-2.4c-1.1-2.5-2.6-4.1-4.3-4.8-4.9-13.6-9.6-27.1-14.1-40.5l1.5-2.1c-.9,0-2.4,0-2.9-.6-1.5-1.7-12.6-28.1-12.3-29.7s.5-.9,1-1.4c-1,.2-2.4.5-2.8-.1-2.5-3.7-11.3-21.4-11.5-25s.3-.9.8-1.3l-3.5-1.6-6.6-12.4c-3.6-4.2-5.5-8.4-5.7-12.6-1.2-3.1-2.7-4.6-4.5-4.5-2.9-3.6-3.2-6.1-.9-7.6Z"/>
    <path class="st9" d="M1208.9,948.3c13.7,50.3,34.2,98.1,60,143.3h-16.4s-9.6-19.8-9.6-19.8c-2.1-.6-4.2-2.6-2.9-4.7-1.1-.9-1.3-3.8-2.3-5.7-16.7-33.6-30-68-40.3-104l-1-6.4c-2.1-4.4-.9-7.4,3-9.9-.6-4.2,1.8-5.9,5.1-3,.8,4.2,2.3,7.6,4.5,10.3Z"/>
    <path class="st131" d="M1.2,261.2c3.6,2.3,3.9,13.3,0,15.1v356c3.5,2.9,4.1,13.4,0,15.4v443.8s-1.2,0-1.2,0V0h1.3s0,261.2,0,261.2Z"/>
    <path class="st81" d="M1940.6,1021.8c-15.2,8.1-31,15.7-47.3,21.7-5,.3-7.8-2.5-8.6-8.4,2.3-1.3,4-2.8,5.1-4.6,17.7-6.7,34.5-15.5,50.8-24.9v16.2Z"/>
    <path class="st62" d="M1940.6,2.8v14.9s-1.2-.7-1.2-.7l-3.6,2.4c-1,1-2.2,1.9-3.8,2.4l-20.3,11.3c-2.6.7-4.5-1-5.8-5.1.9-2.3,1.2-4.6.7-7l14.7-8.8c.8-1.3,2.1-2.1,3.9-2.6l9.9-5.6c2-1.1,3.6-2,5.5-1.4Z"/>
    <path class="st26" d="M1940.6,373.6v15.5s-9.4,4.2-9.4,4.2c-2.1-.4-4.5,0-7.2,1.1-3.9-1.5-5.2-3.5-4-6l-1.3-2.8,22-11.9Z"/>
    <path class="st75" d="M1154.8,0c.9,4.2,4.5,7.4,5.5,12.2l-2.2.9c3.8,6.1-3.6,8.1-7.6,4.2l-1.7.4L1138.4,0h16.4Z"/>
    <path class="st122" d="M646.6,0l-.5,1.5c1.1,2.4-.8,3.5-3,3.2-1.1,3.5-4.4,6.7-8.1,5l-10.9-5.9c-1.8-1-3.6-1.6-3.5-3.8h26Z"/>
    <path class="st174" d="M1218.8,515.9v5.4c-13.7,40.7-32.1,85.4-56.3,121.2s-4.6,5.4-7.4,7.5c-15.7,24.8-33.6,48.3-52.8,70.5l-2.4,1.4c-9.3-1.4-12.1-4.5-8.5-9.2,50.6-58.1,89.2-125.6,113.9-198.8l3.4-.5c2.7-7.1,12.9-6.3,10.1,2.6Z"/>
    <path class="st10" d="M905.6,349.7v.9c-.4,1.4-.9,2.5-1.5,3.4,0,1.4-.4,2.2-1.2,2.4-1.2,1.9-1.2,2.7.1,2.5.7,1.8.9,3.9.4,6.4l-3.7,16.8c-.9.6-1.3,2.2-1.2,4.9-9.3,37.4-27.4,72-51.6,102.5-15.9,20.1-33.8,36.7-53.9,51.4-14.7,5.3-5.3-13,2.9-13.9l2.6-7.2c45.6-37.6,77-89.9,90.1-147.6,2.2-1.6,3.3-4.3,3.5-7.9,4.5-1.7,5.9-4.7,4.2-8.9.4-2.5,4.1-15.6,5-16.3,6.1-4.6,4.9,6.2,4.3,10.7Z"/>
    <path class="st133" d="M1091.4,712.6l.6,5.3c4.2-.5,7.1.4,10.3,2.5-22.1,25.6-46.5,49.4-72.9,70.6-2.8,2.2-4.8.6-5.1-2.7-1.1-.4-1.9-1.2-2.5-2.4-2.8-1.6-1.6-3.9,3.7-6.7l1-3c23.3-19.5,45.1-40.9,64.9-63.6Z"/>
    <path class="st133" d="M1021.8,786c.8.6,1.7,1.4,2.5,2.4,3.3,1.7,2.5,4.4-.3,6.1-.5,0-1.3.4-.7,1.2-2.2,1.1-3.2.5-3.3-1.9-9.3-1.4-3.6-11.5,1.9-7.8Z"/>
    <path class="st135" d="M793,540.9c-23.2,17-49.1,30.2-76.4,39.3-7.7.8-7-10.3,1.3-6.8.8-2.7,1.4-5.5,1.9-8.2,28.6-10.9,55.1-26,78.6-45.4,1.3,2.8-.2,5.6-.2,8.2v3.2c0,.5-2.4.3-2.6-.3l-.7-2.5-7.9,9.6c.6,2.3,4.1,3.4,6,2.9Z"/>
    <path class="st183" d="M979.8,827.6c-21.7,14.5-44.1,28.4-68,38.7-3,1.2-3.5-.4-3.8-3.1-7.7-2.9.7-10.7,6.7-11.7l2.7-3.1,53.5-31.1c4.1-1.8,4.7,2.9,3.5,6.4,2.5.9,4.3,2.1,5.4,3.8Z"/>
    <path class="st133" d="M1237.5,441.4c3.1-.6,1.6,5.6-.3,6v1c.6,3.8,0,6.3-1.9,7.6,2.6-.1,1.4,3.5-.7,3.3.3,1.7.5,3.4.5,5.1s0,3.4-.4,5c-3.5,15.7-7.4,33.1-15.9,46.6-.2-1.6-.3-3.4-2.1-4.5s-2.6-.1-4.7.3-1.1,2-.4,2.2,1.9.2,2.1.8c.7,2.2,0,5-.9,6.7-2.3-3.3-4.6-5.4-7.6-7.6l15.1-53.3c1.5-1.9,3.6-3.2,6.3-4.1-2-3.8-2.5-7.9,2.1-9.8-.6-2.5.6-4.8,3.6-6.8.8-3.4,1.9-6,6-4.8s0,5.3-.7,6.4Z"/>
    <path class="st128" d="M1245,393.1l-.5,10.8,2.2,1.8c-2.6,5.8-3.6,11.7-3,17.7-1.4,1.2-2.5,2.8-3.3,5-2-.9-2.2-.3-.3,1.2,1.5,2.5,1.4,12.9-2.6,11.8,0-1.6,1.2-3.8-1.8-5.9-.2,4.3-1.4,7-5.5,8.8l2.8,4.2c-2.2,0-4.2.2-5,1.1-2.6,2.9,5,9.3,1.4,14.2-2.1-2.1-1.7-3.7-2.3-5.7-2.4,2.6-4.2,2.9-6.8,2.3,5.5-23.9,10.3-48.1,12.2-72.6.6-1.8,1.7-2.7,3.1-1.5,0-.8.2-1.5.7-2.1,1.2-1.3,8.1-.7,8.8,0s.4,7.6-.2,8.8Z"/>
    <path class="st98" d="M1024.3,788.4c-.5.6-2.2,1.5-2.4.5s-.2-2.3,0-2.9c.4-.5,2.1-.3,2.4.5s0,1.4,0,1.9Z"/>
    <path class="st98" d="M1021.8,786c-1.6.2-4.6,1.8-4.7,3.4,0,2.5,3.5,1.4,4.6,2s.4,3.7,1.6,4.3l-43.4,31.9c-3.2.9-7.7-1.4-8.5-4.2.1-.9,2.1-2.2,1.3-3.4l-1.7-2.5c19.3-12.6,37.8-26.4,55.5-41.2.2,1.5,1.7,3.1,4.4,2,.2.8.1,2-.3,2.7-4.2-1-9.1,1.3-8.7,5.1Z"/>
    <path class="st98" d="M1029.4,791.1c-1.7,1.3-2.8,3.4-5.4,3.4l.3-6.1c1.8,0,3.3,1.7,5.1,2.7Z"/>
    <path class="st185" d="M1240.2,224.5v2.1c.4,6.9,1.2,11.5,2.6,13.6l4.6,40.7c0,1.7-.8,2.6-2.5,2.4-.6,4-5,12.9-8.2,7.4s.9-21.6,0-.3l-1.3.7c-1.4-.2-1.5-1.6-1.6-3.5l-1.3-21.9-2.4-22.6c-.9-4.3-.5-8.1,1.5-11.2-1.6-3-1.2-4.9.5-7.6-6-1.8-8.3-13.4-1.4-15.1,5.4-1.3,7.6,2.6,4.5,6.6,2.2,2.4,3.9,5.3,5.1,8.7Z"/>
    <path class="st180" d="M428.5,507.9l48.1,28c1,2.2,1.8,4.5,2.3,7l-1.8,1.3c.3,3.3-.7,5.1-3,5.5l-50.7-29.3c-3.7-3.3.6-5.3,4.9-5.4-7.3-7.4-7.2-9.7.2-7.1Z"/>
    <path class="st119" d="M917.4,848.5l-.3,4.9c-2.8,0-6.3-.3-8,2.6,1.7,0,4.5-.4,5.6.9s.8,3.9-.6,5c-1.3-2.9-.4-3.1-3.6-3.4-1.7-.3-3.4.3-4.4,1.6,1.2.7,3.6.5,4.1,2.4s.6,2.7,1.6,3.8l-50.9,22c-8.9,2.4-10.1-5.5-1.8-7.7l1-2.9c1.7-1.2,2.9-2.8,3.7-4.9l53.5-24.3Z"/>
    <path class="st103" d="M906.6,288.5c.2,1.4,0,3.5.5,4.8l.8,12.4c.2,14.8,0,29.6-2.2,44.1.2-3.2.7-6.6-1.6-10.3-3.2,3.6-2.8,7.9-3.8,12.3s-3.4,6.4-2.5,10.4c-1.5,2.1-4.3,3.3-5,5.3.3,1.7.1,3.8-1,4.8s-1.7,1.1-3.1,0l3.1-16.9c.5-1.3,1.1-.8,1.7,1.3.5,0,.9,0,1.2.3,2.1,1.9-1.1,1.1-1.2-1.5-.9-2.4-1.1-5.3-.6-8.8l1.4-16.7c.7-6.4,1.3-12.9,1.6-19.4,1.5-1,2.1.6,1.9,4.6.2-3.9-.4-5.8-2-5.9-1-1-.8-4.8.3-6.2,3.2-4.1,5.7-8.9.4-12.6-.8-6.1,7.4-8.8,8.7-2.5l1.6.5Z"/>
    <path class="st71" d="M719.8,565.2c1.6,1.3,3.8.5,5.8,0,2.7,2.4,4.7,2.6,8.2,3-3.7,4.3-7.4,2.6-10.7,1.2-.9.1-3.2,1.7-3,2.5s1.3,1.9,2.3,2.7c-2.6.6-4.6,1.1-6.1,3.4-1.1-1.1-.5-2.1-.5-2.5s-1.7-.8-2.3-.4-.6.7.3,1.1c.4,2.2,1.3,3.2,2.8,4.1-16.9,5.7-34.3,9.6-52,12.1-3-1.4-2-2.9.5-4.5s8.6-5.8,2-5.3c-2.3-.4-2.7-1.6-1.6-3.8h3.4s6.2-1.6,6.2-1.6c15.4-2.6,30.1-7.4,44.8-11.8Z"/>
    <path class="st48" d="M763.7,69.1c0,2.6-2.4,3.1-4.6,3.1,1.6.9,1.7,2.3.2,4.2,2.1,1.3,1.1,2.6-3.2,3.6l-48.4-28c-1.5-2.8.1-5.2,5-7-3-2.3-4.9-6.1-.2-5.7l28.7,16.6,22.4,13Z"/>
    <path class="st152" d="M673,16.5l39.6,22.9c-3,1.3,3.9,4.5,3.7,6-.2,1.4-6.6,2.9-8.5,6.6l-43.5-25.1-1.3-2.3c1.7-7.9,5.1-10.6,10.1-8.2Z"/>
    <path class="st125" d="M1247.4,366.5l-1.1,20.5c-.1,2.3.4,4.7-1.3,6.2l-.9-8.4c-1.3,1.9-1.8,3-2.4,3.4s-2.6,0-2.6-1,.3-1.6-1-2.9c0,10.2-3.5,9.8-3.1,6.7.2-1.4-.3-2.3-.6-2.7s-1-.5-1.8-.4l2.6-32.5c1.5-8.9,3-17.7,4.5-26.5l2,.6c.2,0,.5-.2.6-.5-4.3-1.8,2.3-12.1,5.3-10.7,2.1,1,.8,40.4.5,45.6s-.1,1.8-.5,2.6Z"/>
    <path class="st153" d="M1230.8,179.4l9.4,45.1-4.8-5.3c-.9-1-2.4-1.7-2.6-2.8s.9-3.1,2.5-3.9c-2.7-3.1-6.2,0-7.2,2.7-1.7,4.9,6.3,6.2,6.8,8.8s-2.8,3.2-1.9,5.6,1.5,0,3.3-1c-1.1,5.2-7,6.1-6.1,14.4-3.5-19.7-7.1-39.5-12.2-59.4.4-.8.4-1.3.4-1.7-2-11.6,8-13.1,12.6-2.5Z"/>
    <path class="st24" d="M478.9,537c.9,2.4,1.9,3.4,3.1,2.9l4.7,1.6c12.8,7.6,25.5,14.1,38.4,20.4-.2,1.6,1.1,2.6,3.9,3.2-1.8,6-4.1,11.8-10.4,5.5l-3.3,1.1c-14.3-6.2-27.9-14.1-41.4-21.9l.7-7.3c.9,0,3.3-1.4,2.8-2.1-1-1.1-1.7-1.6-2-2.4s.3-1.4,1-2.1c.7.4,1.5,1,2.3,1.1Z"/>
    <path class="st39" d="M898.3,241.7l2.7,11.4c0,4.4.4,6.1,1.2,5.1l1.3,7c-.2,2.2-.2,4.4.9,6.4l2.2,16.9c-.7.8-1.4,2.4-3.2,1.5.1-3.4-1-3.4-2.4-3.1-2.2.3-2.8,2-2.3,3.2s2.4,1.4,3.8,1.5l-2.3,12.4-4.2-1c-1.1-1.7-1.5-6.6-.6-6.2s-.7,2-1.2,1.8c-1.4-14.1-2-28.7-6-42.4.4-2.3.3-4.7-.3-7.4l2.4-3.3c-2.6-6.1,5.7-8.7,8.1-3.8Z"/>
    <path class="st149" d="M311.8,812c.3,2.4-1.6,3.8-5.8,4.3,1,3.5.3,5.6-2.2,6.3l-42.2-24.3c-1-2-.8-4.2.6-6.5-1.7-3.3-.8-7.9,3.3-6.4l46.4,26.6Z"/>
    <path class="st80" d="M665.5,578.6c2.2,3.5,7.6,0,9.1,1.6s-.1,1.8,0,2.6c0,1.2-2.4,1.2-2.8,1.8l-2.7,5c-2.3-.3-4.3.6-4.5,2.8-16.1,2.2-32.4,2.5-48.7,2.1-6.6-4.7-6.6-10.8,3.2-9.9l.9-2.7c12.8,0,25.6-.8,38.2-2.3l7.3-1Z"/>
    <path class="st22" d="M311.8,812l37.5,22.3c.2,2.5-1.8,3.2-6.1,2.2l5.9,8.5-1,2.8c-4.8-.2-7.9-4-11.9-6.3l-32.5-18.8c1-3.8-.7-6.5-4.1-7l12.2-3.7Z"/>
    <path class="st76" d="M1247.3,280.8l2.2,50.2-.7,13.6-.3,19.3c0,1.3-.5,2.1-1.1,2.6l-.2-46.8c-3,3-4,6.3-5.1,9.3l1.2,1.2c.4,0,1.2.2,1.6.6.6.6,0,1.4-.5,1.6s-.9.7-1.4.5-.5-1.9-.3-2.2l-1.2-1.1c-2.8.8-1,5.6-1.8,7.5-4.5,11.2,0,16.7-4.6,18.4v-12.1c2-12.8,1.6-27.2,0-40.1v-12.1c.1,0,.3-12.1.3-12.1h1.6s.8,12.4.8,12.4c4.1-4.5,5.3-9.2,4.8-15l2.3,4c.3.5,1.3.6,2.3.5Z"/>
    <path class="st178" d="M1203.7,96.9l16.9,47.4c-3.2,1.9-5.9,2.2-8.1.8-1.2,2.2-2.7,3.2-4.6,3l-14.6-41.2c-1.5-5.2.9-6.5,5.8-4.5-9.9-4-.9-11.3,4.6-5.6Z"/>
    <path class="st8" d="M851.2,145.4c7,9.2,12.9,19,19.2,29.3l3.6,6c.8,2.9-.9,3.5-4.9,2v2.7c5.1,5.4,2,9.8-4.1,7-6.6-15.2-15.6-29.5-26.5-41.9-3.6-4.9,7.1-10.8,10.2-5.1h2.6Z"/>
    <path class="st47" d="M396.2,489.4l32.2,18.5c-1.1,0-2.8-.7-4.4,1,3,.6,5.3,1.8,6.3,5.3,1,.3,2.1.5,2.1,1.2s-.6,2.8-1.2,3.1c-.9.5-2.3-.4-3.2-1-2.2-1.6-4,1.1-4.8,2.9l-35.5-20.5c-.8-3.1,5-12.8,8.4-10.5Z"/>
    <path class="st146" d="M231.7,766.3l33.8,19.1c-1.3,1.2-1.6,2.3-1.8,3.7-.5,3.6,6.4,1,4.4,3.5s-2.2.8-4,1c-.8.7-.1,4.1-2.4,4.6l-35-20.1c-1.1-1.9-.9-3,.9-4-6.3-3.3-1.5-11.1,4.2-7.9Z"/>
    <path class="st140" d="M837.2,882.5c2.4.5,2.3,1.8,1.9,3.8,6.1,4.2,1,7.1-4.5,7-.3,1.4-.9,2.4-1.8,3-7.8-1.1-10.2.2-7.4,3.9l-24.9,7.4c-9.8,1.8-20.4-7.9-6.5-11.3l2.1-1.5,18.1-5.1,23-7.4Z"/>
    <path class="st42" d="M478,889.8c.3,2.1-.8,3-3.4,2.9,3.7,4.7,1.1,7.3-7.7,7.8l-31.8-11c-1.7-.7-2.4-2.3-2.3-4.9-2.3.3-4.4-.1-6-1.4,0-5.8,3.9-8,11.9-6.6l39.4,13.2Z"/>
    <path class="st74" d="M699,911.8c5,2.7-.8,5.4-4.8,4.8-10.6,4.8-9.2,6.4,4.2,4.6,3.6-.1,5.6,1.1,6,3.5l-36.5,2c-4.2.3-26.8,1.3-28.9-.5-3.6-3,4.5-9,9.3-7,0-3.9,1.8-4.3,5.3-4.8l45.4-2.7Z"/>
    <path class="st182" d="M823.6,113.9l15.2,15.9,5,5.9,7.4,9.7c-1.5,3.4-3.6,5.9-6.2,7.4.4-1.8-.1-3.6.3-4.1s1.1,0,1.9-.2c.6-2.5-1.2-3.1-2.3-3.4s-2.2-.7-2,1.3c.1.5.5,1.7.3,2.1s-1.1.6-1.4.4-.8-1-1.3-2.2c-1,1-1.3,2.4-2.1,3.7l-25.2-28.8c.8-1.9,2.6-2.9,5.5-3.1-1.2-4.4.4-7.6,4.8-4.5Z"/>
    <path class="st72" d="M556.8,571.9c-1.2,2.5-.9,2.6.8.4,1.4-.2,2.6.8,3.7,1,.9,2.2.5,3.6-1.5,4.7,2.1,3.3,2.4,8.3-2.4,8-14.6-3.1-28.4-8.6-42.1-14.5,1.3-2.5,2.7-6.2,5.4-6.5,1.6,0,2.1,2.3,1.1,2.4s-.9.2-1.4.8l2.9,4.2c1.1-3.5,1.9-5.6,4.9-6.7-4.9.3-7-1.2-9.8-2.4l6.7-1.5,31.6,10.1Z"/>
    <path class="st72" d="M791.4,86.8c6.3,5,13.1,9.2,19.3,15l12.8,12.1c-1.6-.3-3.1.7-2.9,2l.7,3.6c-1.5,2-5.6,2.2-8.2,2.1l-8-6.6-17.6-14.5c-.2-2,.9-3.6,3.2-4.6l-3.6-3.5c-12.2-2.7-4.7-9.4,4.2-5.5Z"/>
    <path class="st158" d="M796.2,894.9c0,3.6-7,3.2-6.7,6.5s7,5.8,11.1,6.3l-18.6,4.6c-4.6,1.1-8.9,2.6-13.3,2.3l-11.9,1.3c-1.8-1.4-1.4-3.1,0-4.9-4.4-1.9-5.8-4.1-4.1-6.6l43.5-9.5Z"/>
    <path class="st96" d="M1160.2,12.2c6.3,7.5,11.3,17.8,15.8,26.6l-.5,2c2.3,4,1.3,7.7-3.9,6.9.1,2.6-.6,4.5-2,5.8l-20.9-35.9c1-7.1,5.8,2.6,8.6-1.7-1.9-2.1-4.1-6.5-.8-8.3.6,1.9,2.8,3.6,3.7,4.6Z"/>
    <path class="st55" d="M202.5,749.1c4.4,2.6,9.4,4.7,14,8.2,5.6,2.7,11.2,5,15.2,9-2,.7-3.8,1.6-5.6,4.2,2.6,1.5,4.9,2.6,6,5.3-2.9.2-4.3.8-5.5,2.3l-31.8-18.4c-4.1-3.3-1.8-6.1,2.2-8.5,0-2.9,1.8-3.7,5.4-2.2Z"/>
    <path class="st120" d="M593.1,579.4c-.5,2.2,0,3.1,1.3,2.5l9.3,1.2c2.3,4.7,1.8,6.6-2.8,8.4-7.2-.6-14.4-.9-21.5-.8l-21.9-4.6c.6-1.2,1.8-3.4,1.5-4.6s-2.9-2-4.6-2.4c3.3-2.2,5.1-3.5,7-5.7l31.7,6.1Z"/>
    <path class="st105" d="M90,312.4l27.8,16.2,1.5,1.9c.1,3.8-1.7,11.2-5.4,11l-35.4-20.5c-3.7-1.8-1.2-4.7,2.2-5.4,1.7-5.1,4.8-5.2,9.3-3.2Z"/>
    <path class="st164" d="M60.7,295.6l29.3,16.8c-4.2-.7-6.3,1.7-7.7,4.9-1.3.5-4,1.3-3.8,3.7l-29-16.8c-8-12.2,1.8-14.4,11.2-8.6Z"/>
    <path class="st78" d="M622,914.3l31.7.2c-1.6.2-3.6,3.2-2.4,4.5l9.3.7v1.7s-19.2.5-19.2.5c-.2,1.7-.2,3,0,4.9h26.6c-1.4,1.7-3.8,1.1-6.1,1l-47.3-.8c-6-2-10.9-9.1-1.8-9.9-.4-4,6.2-3.3,9.2-2.7Z"/>
    <path class="st177" d="M763.7,69.1c9.5,5.5,19.1,10.9,27.7,17.7-2.9,3-7.5-.5-8.1,1.3s0,1.5.3,1.7,4.4-3,9.4,5.5c.4,2.3-3.5,4.5-5.5,5.1-8.3-6.8-17.8-12.2-26.7-18.3-.6-1-1.5-1.7-2.8-2.1-.5-.1-1.2-.3-1.8,0,1.6-1.3,2.8-2.9,2.5-4.2-.6-2.5-3.7-3.3-5.6-2.7-.9-6.1,5-2,10.7-4Z"/>
    <path class="st25" d="M515.1,899.8c1.7.1,2.2.6,1.4,1.4l8.5,1.1,19.4,3.8c-2.3,1.8-3.1,3.3-2.3,4.6-.1,3.9-2.7,6.1-7.6,6.7-14-2.3-28.2-4.9-41.5-9.9-4.2-1.2-2.2-3.5,1.2-5.2l18.8-2.3c.5-.4,1.5,0,2.1,0Z"/>
    <path class="st57" d="M1220.6,144.3l10.1,35.1c-3.4-.3-3.8-6-8.3-4.6-1.6.5-2.2,2.3-2.1,4.8l-1.9-2.7-.3,5.1-10.2-33.8c.8-2.3,2.5-5.3,4.9-5.8s1.5,1.1,1.6,1.4c.3.6,1.9,0,1.9-.7l-.2-3.3,4.5,4.6Z"/>
    <path class="st52" d="M752.7,904.4c2.7,5.3,11.3,4.6,4.4,9.5,3.9,1.2,7.7.5,11.6.7-13.9,3.8-28.3,6.2-42.5,7.8-5.2,0-9-2.6-4.7-7,.2-2.9,1.3-5,3.4-6.3l13.2-2.3,14.6-2.5Z"/>
    <path class="st0" d="M724.9,909.1c1,1.9.2,3.1-1.3,5,2.5.3,4.4,0,6.4,2.2-2.7,1-5.3.8-8.4.9.5,2.6,2.4,4,4.6,5l-21.7,2.4-6-1.1c-6.6.9-12.9,1.4-19.2-3.6,5.8-.4,9.8-2.8,14.2-5.7l4.7-.5c.6,0,1.1-1.1.9-2.1l8-.7,17.9-2Z"/>
    <path class="st90" d="M122.8,702.9l33.3,19.8c-.5,2.9-2.8,3.3-5.1,1.7l1.2,1.2,2.2-.2c.7,0,.4.9.1,1.3-.8.8-1,1.1-1.5,1.2-1.3.3-2.3-1.2-1.9-2.2l-.5-.9-.8,1.6c3.7,1.2,2.1,7.3-2,6.3l-28.3-16.4c-2.4-1.9-2.6-3.1-1.1-5.6-6.3-3.2-1.7-10.1,4.4-7.8Z"/>
    <path class="st88" d="M410.9,866h1.2c1.4,1.1,3.1,1.8,5.1,2.1l21.3,8.5c-3.2,3.3-8.1,0-10.6,5.7,3.1,0,5-.4,6,.4,1.9,1.5,1.4,4.8,1,6.8-13.3-4.6-26.3-9.9-38.9-16.2l-1-2.7c4.7-8.7,6.5-10.6,15.8-4.6Z"/>
    <path class="st68" d="M27.1,276.1l27.1,15.3c2.5,1.4,5.3,1.9,6.5,4.1-1.5,2.7-3.5-1.9-5.2-1.6-3.4.6-6.2,1.2-6.5,1.6s-.7,2.6.3,3.3,1.9.4,3.8,0c-1.7,1.8-3.1,2.9-3.6,5.2l-29.1-16.7c-4.2-6.7-3.5-15.7,6.8-11.3Z"/>
    <path class="st20" d="M1189.5,65.3l14.2,31.7c-2,.4-3.6.9-6.6.2,0,.4-.4,2.2,0,2.3h3c1.3,2,3,5.6,3.8,9.3-4.3.1-6.2-6.3-9.4-4.4s-1,1.4-1.2,2.7l-11.8-27.7c-1.1-3.9-1.6-6.1,2.3-8.1.8-6.7,2.6-8.7,5.6-5.8Z"/>
    <path class="st59" d="M874,180.6l13.2,28c0,3.3-1.5,6.5-4.5,9.5.4,3.5-.6,6.3-4.2,5.2l-13.6-31.1c.2-.8,1.2-1.6,2-1.7s1.5,1.5,3.2-1c-1.8-1-3.1-2.7-3.5-4.7s.3-4.1,1.7-5.6c3.2,1.2,3.9,2.4,5.7,1.3Z"/>
    <path class="st29" d="M898.3,241.7l-7,.2c.8,1.3,2.2,3.3,1.4,4.4l-3.4,4.8,1.3,3c.2.6-1.4,1.8-2.4,2.1l-9.6-32.9c.5-1.2,1.4-2,2-2.9s-1.5-2.5-2.4-2.9c5.8-1.1,3.9-5.8,9.1-9,5,10.5,8.3,21.8,11,33.1Z"/>
    <path class="st6" d="M98.4,688.8l24.4,14.2c-1.9,1-4.5,2.2-5.6,4.3.7,1.3,3.3,1.5,5.2,1.1-1.7,3.3-2.9,4.8-2.9,8l-31.1-18.1-1.4-2.3c2.2-7.9,6-10.3,11.3-7.3Z"/>
    <path class="st50" d="M478,889.8l35.1,10c-9,6.9-21.4,1.7-20,7.6l-8.1-1.4-18.1-5.6c0-2.6,1.6-3,2.9-3l5.6-.3c-2.5-1.7-4.2-3.7-3.8-6.6l6.5-.9Z"/>
    <path class="st54" d="M52.2,662.2c-.3,2.3-2.8,2.8-7.4,1.6l.7.8c2.3-.1,4.7.7,6.3,2-3.6,1-5.6.3-6.9-1.2l-1-1.2c-1,2.3-2.8,5.7-5.6,5.2l-29.7-16.9c-2-1.9-1.9-2.8.1-2.8-.2-.5-.8-1-1.2-1.1-.9-.3-2.6-2-2.3-2.9.4-.9,2.8-.6,3,.5l.4,2.2.6.6c-.4-.5-.7-1-.8-1.5-.4-1.9,10.5-3.5,12.4-3.3l31.3,18.2Z"/>
    <path class="st134" d="M376.1,848.6c10.4,5.6,20.9,10.4,32.2,15.1,1.3.6,2.2,1.3,2.6,2.2-1.5,0-2.7,2.3-5.4,2.6s-1.6-.6-1.5-1.7.7-1.6,2.2-2.6c-4.9-2.9-4.1,1.6-10.1,9l-24.3-12.1c-2.7-1.9-3.1-3.3-1.9-6.3-6.6-5.3-.7-9.3,6.1-6.3Z"/>
    <path class="st7" d="M349.3,834.2c.3,0,.8,0,1.1,0,1,1.1,2.3,1.9,3.8,2.4l22,11.8c-1.8.4-4.1.3-5.8,1s-1.1,2.5,0,2.8,1.7.7,3.4,1.9c-2.2,1.9-2.5,4.2-1.8,6.8l-10.4-4.8c-2.1-.6-3.3-1.5-3.8-2.7-3.1-1.9-7.5-2.8-9.6-5.9-4-5.9-7.7-9.8-7.5-11.4s1.6-2.5,3-4.1c1.3,2,3.4,2.7,5.7,2Z"/>
    <path class="st14" d="M863.9,872.9c.6,3.9,7.7,3,7.5,8.1l-8.2-2.7c-1.8.4-1.5,2.9-1.9,3.7s-2.8,1.1-3.8,1.5c-1.5.7-1.9,2.7-1.3,3.3,1,1,3.4,1.3,4.7,1.4l-20.7,7.2c-2,.2-3.7.7-5.2,2l-2.1.2c-1.4.7-2.9,1-4.5,1.1-6.5.1-3.9-1.9-1.6-.3s0,.7-.2,1.5c-.5-.2-1,0-1.2.3-1.2-.2-2.4-.3-3.2-.9.7-2,1.8-5.6,4.5-5.1s4.7,2.5,6.1,0,3.7-3.6,7.8-4.2c-2.3-2.4-5.9-1.6-5.4-3.2s2.6-2.3,2-4.3l26.7-9.6Z"/>
    <path class="st148" d="M567.5,909.5l20.5,2c.2,1.4-1.1,1.9-4.1,1.5,4.4-1.1,24,1.1,17.4,7.6-4.9,1.5-9.8,2.8-14.7,4.1l-26.3-3.2c-4.6-4.6-7.9-14.4,1.7-12.5,1.9.6,3.7.7,5.5.4Z"/>
    <path class="st11" d="M144.4,344.3c-.1.5-.3,1-.6,1.1s-1.4,0-1.9,0,4.8-.8,4.3,3.2-6.8,6.6-9.5,6.1l-22.9-13.2c3-4.7-3.8-4-3.1-11.3,1.9.4,3.3,1.3,3.7,2s.1,1.5-.7,2.9c.6.3,2.2.5,2.6,0,1.2-1.5-.4-5.5,1.5-6.6,8.8,5.1,18.3,9.5,26.6,15.7Z"/>
    <path class="st69" d="M1176.1,38.8l13.5,26.5c-4.1.1-1.6,6.4-4.6,8.1s-3.4,3.2-3.3,5.8l-11.9-25.8c-1.2-2.6-1.2-7.8,1.1-10.2s1.5,2.9,2.1,2.6,1.6-1.1,1.7-1.8c.5-3.1-1.9-4.6-.7-5.3s1.6,0,2.1,0Z"/>
    <path class="st179" d="M156.2,722.7l.9.2c2.1,1,3.8,2.5,5.2,4.4h2.4c3.9,2.5,9,4,12.3,7.5-.3,2.4,1.6,4.9,4.1,3.8.7.4.5,11.9-3.5,11.3l-29.9-17.2,2.3-4.7c-1.7.2-3.2-.8-3-1.6s.4-2,1.2-1.9l2.3.3.4-.4c1.4-1.4,3.2-2.2,5.1-1.7Z"/>
    <path class="st85" d="M144.4,344.3l25.5,14.6c3.6,2.9,1.5,4.8-2.9,4.6-.2,3.6-2.2,7.3-5.9,5.4l-24.3-14.1c.6-4.2,7.8-3.7,7.3-8.3-2.4.9-5.9,1.2-7.2-2.2,2.1-.3,5.9-.8,7.5,0Z"/>
    <path class="st157" d="M593.1,579.4l3.3.3,9.8,1.1h39.7c0-.1,12.2-1.2,12.2-1.2-1.6,1.9-4.4,2.1-7,2.2l-28.9.4-.9,5c-2.9.2-5.4-1-8.9,1,2.8,1.9,4.5,3.9,3.4,6.4-12.3-.3-24.4-1.2-36.5-3.7.3-.8,1.1-1.3,2.4-1.3h20.5c.4-1.8.4-3,0-4.8l-13.5-.4c1.6-1.5,3-1.2,3.9-1.3-.8-1-1.6-2-1.6-2.5s2.1-.6,2.1-.9Z"/>
    <path class="st169" d="M76.5,676.9c1.8-2.4,5.5.2,6.6,2.8l15.3,9c-3.1-.6-6.3.6-7.3,4.1s-1.7,4-2.7,5.5l-19.3-11.5c-2.7-1.9-4.7-4.1-6.2-6.6-12.5.6-.7-12.4,5.3-6.6,2.8.8,5.5,1.9,8.1,3.3Z"/>
    <path class="st150" d="M52.2,662.2h1.1c1.7.5,3,1.4,3.8,2.6l17.8,9.7c2.5.8,3,1.5,1.6,2.4-5.2.2-11.3-.5-11.6-4.3-1.1,2.7-3.4,3.5-6.4,5.3,2.5,2.3,4.3-1.1,5.5-1,2.5.3,1.4,3.5,2,4.4,1.1,1.6,2.9,3.8,3.3,5.5-1.4-.6-3-1.1-4.5-2l-17.6-10.6c-2-2.2-4.4-3.7-7.4-4.5-.4,0-1-.2-1.3-.4,1.1-.1,1.9-2.3.8-2.4-1.6,0-2.5,0-3.2-.2s-1.1-1.9-.6-2.9c3.1.8,5.9,1,8.6.3l.7-.4c0-1.3-.4-2.8,1.3-4.2,1.8,2.5,3.9,2.6,6.1,2.6Z"/>
    <path class="st33" d="M287.7,426.5c-.6,3-2.2,6-4.8,8.9-2.3-.2-4.2-.1-5.8.4l-18.8-10.8c-.7-2.2-1.6-3.9-2.8-5-1-3.8,2.4-9.4,6.6-8l25.6,14.6Z"/>
    <path class="st70" d="M169.9,358.9l18.9,10.2c2.3-.6,5.4,1.1,6.4,3.2,0,.4,0,.8,0,1.1,1.1,2.1-.4,3.8-4.6,5.2-2.8.3-5.4,1.2-7.8,2.6l-21.8-12.4c1.1-1.2,3.7-2.9,3.5-4.8-.2-2.8-5-2.6-5.9-5.8,3.3,1.3,5.7,3.8,9.5,2.5.5,1.3,1.6.8,1.6,0l.2-1.9Z"/>
    <path class="st108" d="M588,911.5l24.2,1.9c3.3.3,7.3-1.5,9.8.9l-8,1c2.5,3,5,1.8,7.9,2-3.1,3.4-7.7,1.9-12.6,2.2,1.7,3.6,4.7,4.4,5.2,7.5l-27.9-2.2c3.7-4.1,8.5-5,14.5-6.2-3.2-2-5.6-3.9-8.6-4.1l-9.6-.4v-1.6c1.4-1,3.3-.5,5-1Z"/>
    <path class="st40" d="M544.5,906l23,3.5-3.3,3.1c.3-2.5-.5-2.8-1.5-3.1-1.6-.3-5.2.3-4.6,1.7l1.2,3.1c.3.7-.9,1.7-1.7,2.1,5.3,2.6,6.1-1.7,9.1-2s4.4-.9,4.4,2.8c-5.1-1.6-8.5.3-10.8,4.4l-25.8-4.3c0-3.5,5.2-1.4,5.4-7.5-1.7-.2-3.8.9-5.8-1.5,3.5-1.1,7.1-2.7,10.3-2.3Z"/>
    <path class="st156" d="M27.1,276.1c-2,1.1-3.8.8-6.6.2.5,4.3.3,7.5-.2,11.1l-19.2-11.2v-15.1c9.3,3.8,17.2,10,25.9,14.9Z"/>
    <path class="st84" d="M178.2,735.2c1,1.5,2.4,2.1,4,1.9l20.3,12c-1,.4-1.8.5-2.6.9s0,2.3-.2,3.3c-.2.9-3,.9-3.7,1.6s-1.1,3.1-1.1,5l-17.1-9.9c.5-2,1.2-4.2.6-6-.5-.4-1.8-2-1.2-2.2l3.7-1.3-6.2-3.7c.6-1.7,1.7-1.8,2.5-2,.2.2.8.4,1.1.4Z"/>
    <path class="st17" d="M195.2,373.4l19.5,11.1c0,2.6-1.8,3.6-5.7,3-1,4-2.9,6-5.5,5.9l-20.7-12.2c.4-2,1.2-3.5,2.7-4.5s2.9.3,4.2-.4l5.5-3Z"/>
    <path class="st110" d="M214.8,384.4l14.5,8.3-1.5,2.9c1.8,3.9,3.1,8.7-1.1,11l-23-13.3,4.1-8.7c2.6.3,4.8.6,7-.3Z"/>
    <path class="st139" d="M287.7,426.5l16.9,10c2,1.8.7,3.5-3.9,5.2-.8,1.3-.7,2.9.3,4.8l-1.7,2.2-22.3-13c0-1.7.9-2.6,1.6-2.5s2.2.6,3,.4c1.2-2.7,2.7-6.2,6.1-7.1Z"/>
    <path class="st79" d="M229.2,392.7l24.6,14.2c.2,4-4.2,3.3-7.2,2.8-1.2,2.8-3,4.5-5.5,5.1l-14.5-8.2c-1.2-1.5.4-3.4.4-4.6,0-3.2-1.9-5.6-2.7-8.7l5-.6Z"/>
    <path class="st136" d="M253.8,406.9c2.7,1.6,5.7,3.5,8.3,5-2.2,2.1-3.5,3.8-5.3,7.1.8-.1,3.3-.4,3.4.8.3,2-1.3,3.7-1.9,5.1l-17.2-10c.1-2,1-3.6,3.3-4.9-1.8-1.7-2.3-.7-4.3-.5,1.9-1.8,1.1-3.8,1.7-4.7.8-.7,3.3,0,3.9-2.3l1,5c2.5.5,4.8.2,7.2-.5Z"/>
    <path class="st44" d="M342.2,458l14,8.3c-2.7,3.7-3.9,7.1-3.7,10.1l-2.3,1.5-17-9.8c-1.1-2.6-.2-3.8,2.4-4.5-.4-6.4-.2-8.6,6.6-5.6Z"/>
    <path class="st38" d="M316.8,443.3c.5,3,.9,5.9,1,8.9l-6.2,3.9-12.3-7.3c-1.2-2-1-4.6-3.6-6.8.9-.1,2.2.6,3.8-1.1l-7.7-1c5.9-2.5,11.4,0,12.7-3.2,3.8,2.3,8.3,4.4,12.2,6.7Z"/>
    <path class="st121" d="M673,16.5c-1.4.2-4.4.1-5,1.8-1.3,3.2-1.7,6.2-3.7,8.6l-13.5-7.8c-4.4-3.1,1.8-9.6,5.2-11.8,5.9,2.9,11.4,5.9,17,9.1Z"/>
    <path class="st118" d="M656,7.4c.5,5.1-5.3,6.6-5.2,11.8l-15.9-9.4c2.8-2.1,5.3-3.5,6.5-6.7l4.6-1.5c4.1.4,7.1,4.5,9.9,5.9Z"/>
    <path class="st36" d="M333.5,453.1c-1.3,4.5-3.3,6.3-6.1,5.2-.4,2.7-1.7,4.1-3.9,4.3l-11.8-6.7c0-2-.1-3.7-1.4-5.8,2.4.5,3.7,1.2,6.1.9-.6-2.5-1.9-3.5-3.6-5.3,1.1-1.3,2.5-1.7,4-2.6l16.6,9.8Z"/>
    <path class="st142" d="M388.2,485.1c3.2,0,5.7,2.8,8.1,4.2-2.5,1.6-3,6.3-8.4,10.5l-12.4-7.4c-1.6-2.7,1.2-7.6,4.5-7.5.7-3.3,3.4-3.2,8.2.2Z"/>
    <path class="st66" d="M7.1,635.6c1.6.4,2.9,1.3,3.8,2.5l9.9,5.9-4.8,3.7c-2.9-.1-5.3-.8-6.8,1.1s-.4.5-.4.8v2.8c-.1,0-7.6-4.8-7.6-4.8v-15.4s5.9,3.3,5.9,3.3Z"/>
    <path class="st65" d="M356.2,466.3l13.2,7.5c.4,3.3-2.9,6.3-6.2,6.4-.5,2.8-1.9,4.1-4.6,2.7l-8.4-4.9c0-2.9-2.1-5.7,1.8-7.8-.1-1.8,1.1-3.1,4.2-3.8Z"/>
    <path class="st130" d="M333.5,453.1l8.8,4.9c-1.4.2-2.9-.6-4.3-.2v7.6c-2.1.5-3.7,1.2-4.7,2.7l-9.7-5.5c0-2.7,2.6-4.8,1.8-8.5,1.9-.3,2.6,1.7,3.9,3.1.7-.4.5-3.9,1.1-4.3s2.1.6,3.2.2Z"/>
    <path class="st46" d="M376.1,478c2.9,5.7,1.2,13.2-6.6,10.9-3.5-1.5-7.3-4-10.9-6.1.8-1,2.7-2.4,2.4-3.3s-3.4-1.5-4.7-3c2.6-.9,5.5,1,8.6,1.2.8-2.1,2.6-3.1,4.5-4.1,2.3,1.3,4.6,2.5,6.7,4.2Z"/>
    <path class="st163" d="M388.2,485.1c-2,0-3.9-.2-4.7-2.6-.8,2.1-1,3.2-1.8,4.3s-2.1.9-4,0l1.8,2.7c-2.1.7-2.9,1.5-4,3-1.7-1-4.3-2.8-6-3.6,2.1-1.7,4.3-1.7,6-4.2-.8-2.1-1.6-5.4.6-6.7,3.5,2.9,8.9,3.5,12.1,7.2Z"/>
    <path class="st185" d="M1235.1,343.2v-40.1c1.2,1.5,2.2,3.9,2.2,6.4l.2,27.5c0,2.5-1,4.8-2.4,6.1Z"/>
    <path class="st107" d="M83.1,679.7c-1.8-1.1-4.7-2.6-6.6-2.8l-1.6-2.4c1.4.8,4.1-.3,6,.7s2.3,2.4,2.3,4.5Z"/>
    <path class="st90" d="M164.8,727.3c-.6,1.2-1.5,1.9-2.1,2.5-.9.9-3.6.2-3.4-1.2s2.9-2.3.9-3.5c-.7.2-3,0-3.6-.3s.4-1.3.5-1.8c3,.7,5.2,2.7,7.7,4.3Z"/>
    <path class="st50" d="M525,902.2h-8.7c-1.4.1-1.6-1.7-1.2-2.4,3.4.3,6.9.8,9.9,2.4Z"/>
    <path class="st39" d="M907.8,305.6c-2.1-3.6-1.1-8.2-.8-12.4,1.4,4,.7,8.2.8,12.4Z"/>
    <path class="st99" d="M904.2,357.8c0,2.7-.2,5.2-.8,7.6l-.4-6.4c-1.9.1-1.6-1.5-.1-2.5l1.2-2.4c.9.5,1,1.7.1,3.7Z"/>
    <path class="st134" d="M417.3,868l-6.5.2,1.3-2.4c2.1-.1,3.6,1.5,5.1,2.1Z"/>
    <path class="st179" d="M182.2,737.1c-.8.9-2,1.8-2.9,1s-1.5-1.8-1.2-2.9c1.7,0,2.8,1.2,4,1.9Z"/>
    <path class="st103" d="M904.2,357.8v-3.7c0-1.2-.2-3,1.3-3.4-.2,2.4.4,5.3-1.3,7.1Z"/>
    <path class="st53" d="M904.4,271.6c-2-1.4-1.6-4.2-.9-6.4l.9,6.4Z"/>
    <path class="st67" d="M902.2,258.3c0,.6-.5,1.5-1.5,1.2l.3-6.3,1.2,5.1Z"/>
    <path class="st114" d="M10.9,638.1c-1.7-.1-3.2-1-3.8-2.5.6.3,2-.4,2.9.2s.8,1.6.9,2.3Z"/>
    <path class="st22" d="M354.2,836.7c-.8,0-2.3.3-3.1,0s-1.1-1.5-.7-2.4c1.6,0,3.1,1,3.8,2.4Z"/>
    <path class="st186" d="M57.1,664.8c-1.7,0-3.3-.9-3.8-2.6.7,0,2.1-.1,2.9.2s1.1,1.4,1,2.4Z"/>
    <path class="st61" d="M899.8,382.2l-1.2,4.9-.3-6.1c1.1-.2,1.5.7,1.5,1.3Z"/>
    <path class="st159" d="M1533.6,829.6c9.2,49.7,32.3,95.6,66.9,132.8l7.9,10.1c.3,2.4,1.9,4.6,5,6.5,1.2,3.5-4,9.5-7.7,7.5-43.6-40-73.8-93.5-84.8-151.8-.4-7.8-1-15.2-2.6-22.6,4.6-.1,8.8,1.4,12.6,4.4.1,4.7,1,9,2.7,13Z"/>
    <path class="st127" d="M1608.4,972.4l18.5,14.7c12.7,10.1,26,18.6,39.5,26.8,1.2,1.1,2.6,1.8,4.2,2.3.6.8,2.5.9,3.3,1.3.2,6.9,2.6,10,7,9.3,1.3,2.4,2.8,4.3,4.6,5.8,2.2,2,2.7,3.6-.2,5-29.6-12.1-56.3-29.8-79.5-51.2l6.2-5.9c-1.8-2.6-4.1-4.7-7.3-6.2,1.4-1.6,2.6-1.5,3.8-1.9Z"/>
    <path class="st132" d="M1194.3,877.7c3.1,23.9,8.7,47.2,14.6,70.5-1.6,2-3.4,1.2-2.7-.9l-3.9-9.4c-1.8,1.6-.3,2.9-.4,3.6-.5,2.1-6.6,3.2-5.6,9.3-.9-.5-1.5-1.5-1.8-3.1-5-22.1-11-43.6-12.8-65.7-1-3.9-1.3-26.7,2.3-28s4.7,3.2,5.1,5.9c-1,4.3-.5,6.9,1.7,7.7l3.6,10.1Z"/>
    <path class="st176" d="M1530.1,757c-1.8,24.3-1,48.6,3.5,72.5-2.7-1.5-2.8-4.9-2.8-8.5v-2.8c0-.4-.4-.9-1.1-.2l-2,2-3.1-6-1.8,4.1-1.9-3.3c-.7-1.3-2.7-.7-2.3.3l3.9,4.2c1,1.1-.5,2.4-1.4,4.2l-.3,11.3c-5.1-26.6-6.8-53.8-3.6-80.8,1-2.2,1.2-5.4.4-9.3l1.3-5.6c6.9-3.3,9.3.7,7.3,12.1.6,2.2,1.8,4.1,3.6,5.8Z"/>
    <path class="st144" d="M1740.7,1041.5c0,.8.6,1.3,1.5,1.7,2-.2,2.8,1.4,2.4,4.8,6.6,1.8,6.4,8.3-.9,7.6-20-4-40.3-9.7-58.4-18,.3-2.8-2.1-4.2-5-4.7.3-1.6.7-3,0-4.3-2.3.6-4.1.6-5,0s-4-8.9-3.9-9.3c.2-.8,1.7-1.6,2.5-2l18,8.7c15.7,7.6,32.2,11.8,48.8,15.2Z"/>
    <path class="st18" d="M1541.4,697.4c-.4,3.8-1.5,7.6-2.5,11.7l-6.8,28.1-1.2,8.9c.6,3.5-.6,7.4-.8,10.9-1.3-.8-1.9-.3-2,1.2-4.7-3.9-5.2-9.8-2.9-16.2,0-2.7-3.9-3-2.8,1-1.6.3-2.5-2.4-3.2-4l2.9-17.4c.9-1.2,1.3-2.9,1.2-5.3l1.2-4.6c.9-.9,1.4-2.6,1.3-5l11.2-33.7,3-.4c1.2,3.5.7,7.4-1.6,11.5,3.6,4.3,4.6,8.7,3.1,13.2Z"/>
    <path class="st161" d="M1889.8,1030.5l4.4,4.8-8.6-.6c3,.7,2.1,4.1,3.1,5.3s4.2,1.3,4.5,3.5c-18,6.6-36.8,11.8-55.8,14.3l-1.1-5.6c-2.7-1-4.4-3.3-5.1-7.1,20-2.5,39.8-7.5,58.7-14.6Z"/>
    <path class="st95" d="M1441.7,290.8c1.7-.9,3.6-.5,5.4,1,7.9.6,11.2,4,3.7,8.9l-46,34c-4.8-.7-5.6-5.9-.2-7.3l-1.5-1.8c-3.1.4-5.4-.1-3.9-3.5l42.4-31.2Z"/>
    <path class="st143" d="M1228.5,577.9l-17.5,50.6c-.7-1.4-1.6-1.1-2.7.9-3.4-1.9-5.5-5.1-6.3-9.6,1.5-2.3,1.2-3.6-.9-3.9-.9-.3-2.2-1-2-1.6,3.6-12.4,9.2-28.9,14.2-40.7.6-4,2.1-6.1,4.7-6.1,1.9-3.2,3.5-2.1,5.8,0s6.1,6.7,4.7,10.3Z"/>
    <path class="st117" d="M1189.3,749.8l-.5,20.5c-.4,13.6-2,27-.2,40.4l.5,19c-3.5,5.9-7.1-4.4-2.6-7.4l-2.4-1.1v-38.9c-2.6-3.8-4.2-7.5-4.7-11.1,2.4-3.2,2.2-5.7-.4-7.4l.2,52.4-2.4,1.4c2.7,1.8,3.4,18.3,2.5,20.3s-1.5,1.3-2.4,1.7c-1.2-1.3-1.7-4-1.2-6.1,1-4.9-.9-9.1-.9-13.6v-47.2c0,0,2.1-30.6,2.1-30.6,2.1-5.6,2.9-11.7,2.4-18.3l.2-5.7c3.5-6.1,6.1,3,3.9,6.9,3.5,2.1,3.9,6.9,3.8,10.7,3,3.8,3.7,8.5,2.2,14.2Z"/>
    <path class="st91" d="M1683.3,149.9c1.8-1,3.7-.6,5.6,1.1l3.6-.7c6.1-3.7,12.6-2.7,7.9,5.2l-46,26.4c-3.3,1.9-6,4.5-9.6,4.6l-1.6-2.3,4.3-8.7c-1.9-.7-2.6-1.6-2.1-3.8l37.8-21.7Z"/>
    <path class="st172" d="M1746.7,1043l29,3.5c6.4.7,13,1,19.6,1.1h2.2c1.7-.4,4-1,5.1.3,2.6,5.4-7.1,7.1-11.4,7.3,7.2,1.7,5.7,5.2-1,5.4-15.6.5-31.1-2-46.5-5,1-.5,1.8-.9,2.6-1.5s.8-2.3,0-2.9-2.5-.9-4.6-1l.4-7c0-1.5,3-.8,4.6-.2Z"/>
    <path class="st60" d="M1607.5,590.8l-27.6,32.4c-2.1-.5-3.6-2.4-4.5-5.5-2.5-1.9-3.7-3.9-3.6-6l17.9-21.7,19.7-19.2c1.9.2,2.9,1.8,2.9,5-2.9,2.6-3.5,5.5-2,8.7-1.9,1.9-2.9,3.9-2.8,6.2Z"/>
    <path class="st172" d="M1564.9,645.6c-1.8,2.7-3.6,6.7-5.1,10.2l-16.3,38.5c-.6,1.5-.9,2.6-2,3.1.7-5.9-7.1-7.2-1.7-9.1-9.7-3.4,3-11.4-2.8-15.2l16.8-33.9c4.1-4.3,7.7,1.3,4.2,5.6,5.1,11.5-.4,3.4,0,1.6.9-4.3,6.5-5.6,7.1-.8Z"/>
    <path class="st123" d="M1262.4,505l-19.5,38.8-2.9.6c-2.5-3.6-4.8-7.2-7-10.7l-1.6-2.3c6.1-13.2,12.9-26.1,20.1-38.8l3-.4c5.1-5.9,15.8-.7,9.7,6.2-7.1-1-4.5,2.9-1.6,6.5Z"/>
    <path class="st42" d="M1399.3,322c1.2,2,3.2.9,4.1,1.1,2.4.5,3.7,3.2,4.2,5.7-1.7,1.3-3.1,1.2-5.5,1.4,1.8,1.3,2.3,2.5,2.6,4.5l-33.3,29.1c-4.7-3.2-8.3-7-1.4-10.1-1.4-1.5-2.1-3.1-2.1-4.7l31.3-27Z"/>
    <path class="st2" d="M1204.2,655.4l-2.4,10.9-7.8,39.7c-2.1-.6-2.6-1.6-2.5-3.6-6.7-.4-8.3-5.3-5-14.8l-1.9-1.9,2.5-16.4c-1.4-.6-1.3-1.9.4-4-1-4.1-1.4-7.8,2.4-10,.1-2.2,1.6-12.1,2-12.6s.9-.4,1.8-.4c4-1.5,8,2.8,7.3,7.2,1.9,1.9,3,3.8,3.2,5.8Z"/>
    <path class="st56" d="M1186.5,822.2l.6,7.2c.8.3,1.4.2,2,.2,0,2-.5,5.1.4,7-.4,7.2.3,14.1,2.2,20.9l2.6,20.2c-3-1.6-5.1-5-5.1-8.7-6.1-.2.4-10.1-4.7-13.7.6,8.8-3.9,13.6-2.8,26.7l-2.7-17-2.1-25.5v-22c1.4-3.2,3.6-2,6.6,3.6l3,1.1Z"/>
    <path class="st141" d="M1831.1,1045.1l5.1.7c-.8,1.1-1.5,2.2-1.7,3,4.3,2.3,7.5,2.1,12.2-.2.6,2.7-1.9,3.1-3.2,3.6s-3.5-.7-4.5-.7c-1.2,2.1.9,3.9,2.6,4.5-2.4.8-3.3.8-4.3,1.8l-13.5,1.8-33.7,1.2c.4-.7,1.4-.9,1.9-.6,1.3.8,2.2-1.9,1.1-2.1l-5.3-.9c-1.3-.2-3-1.8-2.2-4.6,6.5.7,13.2.3,16.9-4.6,5.6-.7,14.8-1.6,20.9-.9s-1.5.5-2-.7l9.7-1.2Z"/>
    <path class="st93" d="M1880.6,35.9c2.2-.7,4.5,0,7,1.9,5.1-2.9,8,1.4,5.6,5.9l-15.6,9.6c-.9,1.3-2.2,2.1-4,2.4h-1c-.6,1.1-1.8,2-3.6,2.6l-8.4,4.7c-.7,1.4-2.4,1.9-3.9,2.2-.3,0-.7.2-1,.3-2.6.4-3.7-1.8-3.8-4.2-4.1,3.2-13.9,1.7-8.8-3.5l37.5-21.9Z"/>
    <path class="st41" d="M1702.9,510c5.1-2,6.3,4.1,2,6.8l.4,1.6c3.1.6,4.5,1.9,2.2,4.5l-28.9,16.7-5.4.9c-4.8,7.1-10.9,3-16-1.3,2.8-2.3,5.4-4.7,7.8-7.2l37.9-22Z"/>
    <path class="st86" d="M1194.1,706.1l-3.6,36.2c-.3,2.8.2,5.6-1.2,7.5v-6.2c-.2-3.9-2.8-5-4.8-6,.5-4.2.6-9-3.2-11.8l.5-6.6c.1-1.4-1.6-1.6-2.3-1.2l2.4-18.2c1.7-3,2.4-6.3,2-10l.9-4c.7.1,1.7.1,1.9-.4l.8-3c1.7-1.6,3.6-3.6,5.2-6.1,2.3,4.9,1.6,9.1-.4,12.6-.8-1.4-1.6-1.7-2.2-1.7s-6.7,9.1-1.5,12.1c.7.4,2,1.4,2.4,1.1l2.6-2.1c.5,2.6.9,5.3.7,7.8Z"/>
    <path class="st87" d="M1598.9,213.8l-22.1,13-14.5,8.3c-.4,1.4-1.6,2.2-3.7,2.3-.3,0-.8,0-1,.1-4,0-4-2.5,0-7.7-2.9,1.2-7.7,2-8.5-1.7l37.7-22.3,3.1-.7c.6,3,2,4.7,4.3,5.1,4.6-2.3,9.5,0,4.8,3.7Z"/>
    <path class="st35" d="M1732,493.2c1.9-.9,3.4-.9,3.5,1.1,3.4,0,6.1.9,8.2,2.5,4.1-2.3,6.5-2,7.1.9l-9.9,5.8c-1.7.3-3,1.2-3.8,2.5l-29.5,16.9c-.5-1.8-2-2.3-4-2.1l-7.9.7c2.1-2.5,4-3.8,7.7-2.3-.8-1.5-1.4-3.1-.8-3.6l2.4-1.8c1.3-.9-.8-3.1-2-3.9l29.1-16.7Z"/>
    <path class="st83" d="M1515.2,262.3l-31.3,18c-2.8,1.4-5.2-.1-7.2-4.5-2.9,1.5-9.1,4.7-11.5.4l34.4-20.2c2.9-.3,5.7-1.1,8.2-2.3,3.9-4.1,7.4-3.1,5.9,2.6,2.7,1.6,4.3,3.6,1.7,6.1Z"/>
    <path class="st100" d="M1242.9,543.7l-14.4,34.2c-.2-2.9-3.3-4.1-4.6-6-1.8-2.8-2.5-4.3-5.9-4.3-.8-.5-2-1.3-1.8-2,2.6-7.5,7.7-18.8,11.4-25.8.9-4,2.7-6,5.3-6.1,1.2,0,2.4.1,4.2-1.5.2,4.2,1.9,8.3,5.8,11.5Z"/>
    <path class="st63" d="M1368.1,349c2.4,1,4.4,2.4,5.6,5.5l-6,3.3,3.7,2.6c.9.6.6,2.4.2,3.4l-24.2,24.5-2.7-.4s-1.1-4.1-3.3-12.4l8.7-9.3,18-17.2Z"/>
    <path class="st173" d="M1645.6,171.6l5.3,2.8-5.9,12c-.8,1.6-1.6,2-3.5,3.1l-21.1,12c-2.1.2-3.4-.9-4-3.5-5.3,4.5-10.3,1.8-8.3-4.4l37.5-21.9Z"/>
    <path class="st97" d="M1721.9,127.7c6.4-1.8,9.6-.8,9.6,3.1,0,0-2.2,3.5-6.7,10.4l-24.3,14.3c-.4-1.4-1-2.7-4.3-2.9,1.2-1.6,2.2-1.6,4.9-1.2-3.1-3.2-5.5,2.8-14.6,2-.5-1.2-1.3-3.3-3.1-3.5l38.6-22.2Z"/>
    <path class="st23" d="M1665,532c4.5,4.9-2.5,2-6.2,6.9,2.3,1,3.2-.2,4.6-.3.3,3.8,5,5,7.4,4v-2.6c-.2-1.5,5.2-2.1,7.9-.4l-10.9,6.1-30,19.4c-2.1,1.1-3.9-.4-5.4-4.6-8.4-.7-4.1-4.3.5-7.1,0-.7.6-1.9,1.5-2.4l30.7-19Z"/>
    <path class="st148" d="M1315.9,424.9l-19.5,26.1c-1.8.2-2.5-.6-2.7-2.1-2.5,2.3-5.2,3.5-8.6,2.9-1.6,2.5-3.2,4.1-6,2.2,0-3.3,3-5.7,5-8.5l19.2-26.1,3.3-2c2.9-5.8,11.5,3.3,9.4,7.4Z"/>
    <path class="st15" d="M1632.8,553.4c0,.8-.2,1.9-.7,2.2l-3.4,1.7c1.2.9,3,.6,4.9.6l4.1,7.1-30.2,25.8c-.9-.8-2.1-1.3-4-1.6.9-2.4,3-3.2,4.8-5,.1-1.1-2-2-3.4-2.1s-1.8-1.8-1.3-2.9.6-.9,1.6-.6l2.6.9c-.3-1.8.4-3.3,2.8-3.9-.8-.4-1.9-1.5-1.5-2.5l.2-2.2,15.2-12.7c2.5-2.1,4.7-5,8.1-4.8Z"/>
    <path class="st151" d="M1579.9,623.2l-14.9,22.4c-2.1-.8-5.2-1-4.9,1.4l.5,4.5c-3.1-1.7-4.7-4.7-5.5-7.2.9-.8,2.7-3,1.9-4s-2.5-.6-3.2-1.1l18.1-27.4c4.7,2.1,7.5,6.4,8.1,11.4Z"/>
    <path class="st1" d="M1829.3,80l-2.5,2.5-26.2,14.8c-6.4.3-10.3-1.7-12.9-7.8l21.7-12.3c2.2-.4,3.7-1,5.2-2.1.1-1.8,2.3-1.9,3.3-2.6l4.2-1.2c4.6-5.7,8.5-2,6.7,4.2,2.6,1.3,3,2.6.6,4.5Z"/>
    <path class="st138" d="M1296.4,450.9l-5.8,8.4-16.6,25c-1.6-2.2-2.4-5.3-2.5-9-3-.1-4.6-1.2-4.9-3.2-2.9-2.2-1-3.1,1.9-3.8l5.9-9.3c1.3-2.1,2.6-4.1,4.5-5s3.6-2.6,5.1-5.4c4,2.2,6.2,0,9.4-3,1.6-.6,3.2,3.5,2.9,5.3Z"/>
    <path class="st16" d="M1843.1,57.8c.2,1.8.8,2.4,1.4,2.6,5.1,1.8,7.5-5.2,13.6-.3-1.4.8-2.8.7-4.8,1,1.3,1.4,2.2,2.6,2.4,4.5l-26.5,14.5c-.3-1.2-.6-1.9-1.2-2.2-3-1.2-5.3,3.2-7.9,1.9s-.8-2.4-2.4-4.2l9.2-.8c0-3.2-.8-4.3-2.1-5.1-1.4,4.3-4.6,3.6-7.1,2.9,3.7-2.4,7-5.6,11.2-6.9.6-1.2,2-2.1,4.1-2.6l10.1-5.3Z"/>
    <path class="st43" d="M1483.8,280.3l-1.4,1.1c-.4,1.6-2.2,1.6-2.4-.1-1.6,2.3-3.5,3.3-5.6,3.1l-1.4,2.2-22.1,14.1c-.5-1-1.5-1.2-2.6-1.9,2-.3,3.1.3,5.8-.9-.9-1.7-2.4-2.3-3.9-3.7-3.3,1-5.9-.7-8.5-3.4l23.3-14.7c4.7,0,11.7-3.2,13.5.4l1.5,2.9c.5,1,2.6,1,3.7.8Z"/>
    <path class="st101" d="M1528.3,239.6c2.7-1.6,5.1-.8,7.1,2.3,7.5-7.7,18.9-2.7,6.4,3.2l-3.8,3.4-22.9,13.7c-.9-3.2-3-5.2-6.5-4.2,1-2.5,2-2.7,3-3.8s-.2-2.2-1.1-1.3c-1,3-4.7,3.1-6.9,4,.2,1.4.4,2-.6,3.2l-3.6-4.3,28.8-16.3Z"/>
    <path class="st104" d="M1766.1,489.1l-15.4,8.6c-2.7-.3-5.1.6-7.8,2.3l-2.8-3.9c-.4,1-1.5,2.2-2.2,2s-2.1-1.4-3.1-2.4c-.4,2.4.6,3.2,1,5.1l-5.4-2.1,2.7-3.3c.4-.4.6-1.6-1.1-2.1l29-16.8c4.2-1.6,4.6-.7,4.2,3.7,2.9,3.9,3.2,6.9.9,9Z"/>
    <path class="st160" d="M1211,628.5l-6.8,26.9c-3.8-1.8-6.8-4.1-5.3-9.2-2.3-.7-3.7-2.1-5.2-3.8-.9-.4-2.1-1-2-1.7.6-4.2,3.2-12.2,4.6-16.5.4-4.8,2-7.5,4.8-8.3,1.7-.6,2.3-2.4,4.7-2.2,1,2.2-1,4.4-1.8,5.9,1.5,2.9,3.3,5.6,3.9,8.7.7-2.7,0-5,1.8-7.4,1.2,2.4,1.8,5.4,1.2,7.6Z"/>
    <path class="st32" d="M1771.7,114.1l-21.6,12.1c-1.5-3.1-3.1-3.9-4.6-2.4-3-1.7-5.5-3.5-7.7-5.5l25.3-14.6c3.9-1.1,7.8-2.2,11.4-3.4l1.5,1.4c.1,2.4,1,4.7,2.6,6.9-2.9,1.3-5.2,3.2-6.8,5.5Z"/>
    <path class="st184" d="M1911.6,33.2l-9.9,5.4c-.6,1.2-1.8,2.1-3.6,2.7l-4.9,2.3c-2.8-1.3-.4-5.2-2.8-4.8s-1.4,1.4-1.9,1.8c-2.4-.6-6.2-2.4-8-4.7l25.9-14.8,4.8,2.8c.2-1.7-.5-3.4-.6-4s2.5.4,2.8-.1,1.4-2.9,2.2-2.6c1.1.5,2.5.8,2.8,1.5.5,1.5-1.3,3.7-3.2,3.2s-1.7,1-1.3,1.5l2,2-8.4,1.2,4.1,6.4Z"/>
    <path class="st58" d="M1620.3,201.5l-21.4,12.3c.2-1.1,0-2.3-.9-2.5s-1.9,1-2.5,1.5c-2.4-.2-5.4-1.5-7.1-3,0-.8.3-2.2.1-2.7s-.9-1.1-1.7-1.5l16.6-9.5c1.4-.2,2.8-.8,4.1-2.1.4.1.8-.2.6-.6l3.4,5.3c2-1.1.7-3,1-3l3.6-.2c.9,0,.3-2.2.1-2.7-.3-1,1.9-2.4,3.6-1.1s0,4.2-1,5.9c.5.9,1.9,2.5,1.6,3.8Z"/>
    <path class="st165" d="M1332.2,405.3l-16.2,19.6-6.9-8.1c-1.8,2.5-3.5,2.6-5.8,2.7l21.3-25.7c3.3,2.2,6.4,4.9,9.3,8.2l-1.6,3.3Z"/>
    <path class="st82" d="M1787.7,89.5c1.9-.2,3.3.7,4.4,2.4,3.2,5.4,9.3.9,8.5,5.4l-28.8,16.8c-.7-2.8,2-4.7,5.4-5.4-1.4-1.1-2.7-1.7-3.4-2.9s.6-2.6.5-3.3c-1.4-1.6-3.5,1.5-4,2.5-2.4-.5-4.8-2.2-7.2-1.4l24.6-14.2Z"/>
    <path class="st27" d="M1274.1,484.4l-11.6,20.6c-2.5-.3-4.6-1.2-5.1-2.6-1.2-3,2.8-9.6,3.8-8.6s.6,1.3.9,2.8c.3.7,2.2-.5,2.2-1.3,0-2.7-5.1-4-9.8-3l-1.3-2.5c3.5-5.8,7.1-11.6,10.6-17.5l3-.2c2.3.1,4.4.3,6.9,1.3.9,3.6,2.2,7.9.5,11Z"/>
    <path class="st181" d="M1557.5,237.5l-9.9,6c-3.3,2-6,4.4-9.5,5.1,2.2-8,6.9-4.7,7.3-6.7s-.2-1.5-.7-1.7c-3.4-1.6-6.9,6-10.7,3.8s-2.9-4.3-5.7-4.3l8.8-5.5c3.8-2.4,7.6-5.4,11.9-6s5.8.9,7.8-.5c.2-.9.3-2.5,1.2-3.3s2.3-.4,2,1c2,7.6-5.3,8.9-2.5,12.3Z"/>
    <path class="st92" d="M1931.2,393.3l-24.5,14.3c-2.8.3-3.5-1.4-4.1-3.8-3.9-1.3-5.9-5.3-2.4-7.6l18.4-10.6c3,.4,5,2.2,7.6,3.5-2.5.1-4.1-.2-5.5,1l3.2,1.1c.4.1.4.7.5,1.5l7.4-2.8-.7,3.5Z"/>
    <path class="st25" d="M1347.4,388.3l-15.2,17c0-5.5-7.3-4.3-7.7-11.5l16.8-18.2c.8.4,1.4.3,2.2.5s0,1.6.2,2.2l3.6,10Z"/>
    <path class="st34" d="M1737.8,118.3c3.1,0,5.9.3,8,2.9s5.8-.4,6.5-2.9c2.5,1.4,1.1,3,1,4.3s-2.4,1.6-4,1.2c0,1.2.5,1.6.8,2.4-.1,0-.3,0-.5,0-1.4,0-2.4.9-2.9,2.5l-21.9,12.4c-1-1.3-1.5-2.6-1.4-3.5s2.4-1.7,3.2-2.3c1.1-1-.6-3.2-1.9-3.9l5.3-.8-.7-1.3h-5.1c.3,1.1,0,1.7-.3,1.8-.7.2-1.5-.4-1.5-.8l-.4-2.5,15.9-9.3Z"/>
    <path class="st113" d="M1875.3,410.6c2.4.1,3.1,1.5,2.2,4.2,8.7,2.5,9,4.2,1.1,8.5-4,3.1-8.9,5.6-13.3,8.2-5.4.2-6.7-1.7-7.7-7.9s0-1.9.3-2.9l17.4-10.1Z"/>
    <path class="st49" d="M1831.5,451.3l-21.2,12c-2.9-1.8-1.7-4.1.3-6.2-3.8-.6-5.2-2.4-5.1-6.3l12.7-7.2c5.1-1.9,8.2-1.2,9.3,2,4.3,0,8,2.9,4,5.7Z"/>
    <path class="st73" d="M1843.5,444.1l-11.9,7.2c0-1.7-1-3.2-2.5-3.3s-2.9-.3-4.8.5c.4-1.4.8-2.3.4-4.2-2.5.4-4.4.3-6.4-.8l20.3-12c6.8-2.1,6.2,7.7,4.9,12.5Z"/>
    <path class="st3" d="M1900.2,396.1c.7,1.9,1,3.5,1,5.1,1.9-.6,2.8-.6,3.7-.5-.6,2.8,1.1,4.4,1.7,6.8l-12.2,7.2c-3.8-.5-9.7-5.3-11.5-8.7l17.1-10Z"/>
    <path class="st89" d="M1801.3,468.4l-10.4,6c-2.6.2-8.3-3.1-7.2-6.1-2.1,0-3.1-.7-3.3-2.9l12.3-7.1c8.9-4.1,14.9,2.4,8.7,10.1Z"/>
    <path class="st162" d="M1883.1,406.1c4.4.5,10.1,5.3,11.5,8.7l-16,8.4,4.8-3.8-10-3.6c1.4-2,2.6-3.5,1.8-5.3l7.8-4.5Z"/>
    <path class="st155" d="M1780.3,465.4l8.1,1.2-3.9,3.2c4,.2,5,1.7,6.3,4.6l-14.1,8.3c-6.4,1.7-5.4-3.4-3.9-8l-1-4.2,8.4-5Z"/>
    <path class="st31" d="M1805.5,450.7c.7.2,2,.4,2.3,1s.2,1.5.3,2.3c2.4.3,4.7.6,6.8,3.7-3.5.3-3.8,2.5-4.6,5.5l-9.1,5.1c-2.2-1.9-.3-4.3.7-5.7-.8-3.1-6.4-5.3-9.5-4.5l13-7.5Z"/>
    <path class="st112" d="M1776.8,482.7l-10.7,6.4c-1-3.4-1.9-7.1-4.5-9.5,1-.6,1.6-1.4,1.6-1.9s-1.5-1.3-2.2-1.2l10.9-6c.6,0,3,0,3.4.7s.9,7.6-2.4,8.6c2.3,1.1,3.2,1.9,3.9,3Z"/>
    <path class="st129" d="M1865.3,431.4l-11.3,6.6c-3.8,1.4-5.4-.1-4.9-4.3-2.5-1.4-5.1-2.8-3.5-5.7l12.2-7.3c2.8,1.7,4.1,5.1,2.6,8.8,1.3-.3,2.6-.8,3.4-.4s1,1.6,1.3,2.3Z"/>
    <path class="st167" d="M1854,438.1l-10.5,6-4.4-4.6c1.2-.3,2.8-.7,3.2-1.2s-.2-2.4-1.1-2.4-1.6-.2-2-1.1,3.1-3,1.3-3l-1.9-.2,7.1-3.6c2.3,1.4,2.9,4.1,7.3,4,0-1.3-1.6-2.3-2.1-4.4,1.9-.4,3.4,1.8,3.3,3.5s-1.2,3.5-3.5,4.9l3.3,2.1Z"/>
    <path class="st109" d="M1191.7,857.5c-3.4-4.2-3.4-14-2.2-20.9,1.2,2.7.6,5.5.9,8.8l1.3,12.2Z"/>
    <path class="st30" d="M1517.4,754l.4-9.3c1.6,4.5,1.2,9.9.5,14.7-1.4-2.1-1-3.9-.9-5.4Z"/>
    <path class="st83" d="M1480,281.2c1.6,1.4.7,2-1.5,2.2-1.2,1.8-4,2.2-5.5,3.2-.4-1.2-.2-2.8.8-3.4s2.7.5,3.6.6c.8-2.2-1.4-4.4-2.1-5.9s1.2-2,1.8-1.3c1.1,1.4.4,3.5,1.4,4.6s1.2.3,1.6,0Z"/>
    <path class="st32" d="M1749.6,126.2c-.5,1.4-1.7,1.8-2.9,2.5-.5-.5-1-1.3-.9-1.9s.7-2.6,1.4-2.8,2.1,2,2.3,2.3Z"/>
    <path class="st166" d="M1562.3,235.1c.5,1,.2,2.4-.6,2.5s-2.2,0-3.1-.2c.8-1.4,2.4-1.6,3.7-2.3Z"/>
    <path class="st171" d="M1482.4,281.4c.2.9-.2,1.9-.9,2.2s-2.4,0-3-.2c.6-.6,1.1-1.4,1.5-2.2h2.4Z"/>
    <path class="st45" d="M1860.6,63c0,.6-.2,2.1-.9,2.3-1.1.4-2.1.2-3,0,.8-1.3,2.2-2.1,3.9-2.2Z"/>
    <path class="st28" d="M1872.6,55.7c.4.9,0,2.3-.7,2.4l-2.9.2c.5-1.7,2-2.5,3.6-2.6Z"/>
    <path class="st4" d="M1877.6,53.2c0,.9-.3,2.2-.9,2.4-1,.3-2.3,0-3,0,.7-1.5,2.3-2.3,4-2.4Z"/>
    <path class="st106" d="M1901.8,38.6c.4,1,0,2.3-.8,2.4l-2.8.3c.5-1.9,2.2-1.9,3.6-2.7Z"/>
    <path class="st19" d="M1935.7,19.4c0,.7-.4,2-1,2.1l-2.8.3c.7-1.6,2.2-2.4,3.8-2.4Z"/>
    <path class="st94" d="M1939.4,17c-.6,1.5-2,2.4-3.6,2.4,0-.8.4-1.9,1-2.2s1.9-.4,2.7-.3Z"/>
    <path class="st77" d="M1522.1,721.7l1.2-5.3.3,6.4c-.9.3-1.4-.4-1.5-1.1Z"/>
    <path class="st154" d="M1524.4,711.8l1.3-5,.3,6.3c-1.1.2-1.5-.8-1.6-1.3Z"/>
    <path class="st115" d="M895.7,309.2c1,.3,1.1.7.1,1.3v18.2c0,.9-.9,1.4-1.6,1.2l.4-26.6c.2-1.2.6-1.2,1.4-.2l-.3,6.2Z"/>
    <path class="st170" d="M195.2,372.3c-2.7,0-4.3-2.1-6.4-3.2,1.5-1.6,3.3-1.1,4.7-.5s2,2.2,1.7,3.7Z"/>
    <path class="st180" d="M482,539.8l-.2,1.2c-.1.7-1.6.7-2.8.2-.7-.9-.4-2.9,0-4.3,1.5.3,2.7,1.3,3.1,2.9Z"/>
    <path class="st120" d="M606.2,580.8c-3.3,0-7.2,1.1-9.8-1.1,3.3.3,6.9-.7,9.8,1.1Z"/>
    <path class="st37" d="M893.3,355.4c1.1.3,1.1.7,0,1.2l-1.7-1.3,1.1-8.6.6,8.8Z"/>
    <path class="st48" d="M760.9,82.2c-.8-.6-2.7-.3-2.8-2.1l5.3-1c-.4-1.3-2.2-1.6-3.1-2.1s-.3-1.7.8-2.5,1.4-1.2,4-1.2c-1.3,1.4-1.6,3.4-.6,5.6l-3.5,3.3Z"/>
    <path class="st120" d="M556.8,571.9c.2.2.6.4.8.4,0,.4.6,2.6.2,3.1-.9,1.2-1.7-.2-2.3-.3s-2.3-.9-1.6-2.1,2.3-.8,2.8-1.1Z"/>
    <path class="st21" d="M895.9,303c-.4,0-1,.1-1.4.2l-.5-4.6c.3-.5-.2-1.8,1.1-2.8.8,2.3.7,4.8.7,7.1Z"/>
    <path class="st80" d="M675,577.1c-1.1,2.2-4.1,1.5-6.2,1.5,1.5-2,4.1-1.2,6.2-1.5Z"/>
    <path class="st5" d="M1268.6,468.3l-1.9,3.8-12.2,20.1-14.6,26.6-6.9,14.8-14.9,33.9-16.9,48.4-7.4,26.4-6.5,27c-1,.2-2.3.1-2.5-.7s1.5-2.5,2.5-3.6c-3.1-3.7-5.1-10.6-.9-13.5,1.5,1.4-.5,2.5.4,4.1s2.9.6,2.8-.6l-.6-7.4c1.9,0,1.9-.6,2.1-1.8s.8-2.1-.3-3.1c-2.2,1.8-2,3.2-1.8,4.9l-2.2,2.6c-1,1.2-3.5-1.4-2.7-3.3s.6-2.3,2.6-3.6c-2.8-1.8-6-4.5-10.2-5.2l-6.2,2.3c-1.9.7-3.9-1.6-6.6-3-.3,2.9,1.3,4.8.6,6.4s-2.6,3-5.1,5l6.5,2.2c-2.4,1.3-3.2,2-4.8,3.8-1.7-2.5-3.3-4.5-6-5,26.6-42,48.1-87,63.7-134,6.2-18.6,11.5-37.6,15.8-56.7,1.9.2,2.1,3.9,1.8,4-.6.1-.5-4.7.2-5.8,3.8-2.9,2.7-6.4.6-10l.3-6c2.4-3.3,2.1-7.9,2.6-11.8-1.1-.7-1-1.1.3-1.2l4.1-24.4c3.5-1.9,5.7,0,9.6,2.7-1.8,1.8-1.5,5.1-5,7,.5-1.8,1.2-3.5-.8-5.1-3.9,3.9-3.8,9.1-3,13.7,4-.4,6.8-.2,9.1.6.6,1.3.2,3.8-.5,3.9h-2.8c-3.5,0-5.3,0-8.1-2.9-1.3,5.7-1,13.1-.8,18.3,0,.8-2.3,2.1-2.4,2.7s1.3,1.4,1.7,2.4c2.1,4.6,0,9.5-.2,14.2s1.8,3.9,1.2,4.6l-2.8,3.3c.7,1,3.6,3.1,2.9,4l-2.3,3.3c.1,1.8,3.6,3.3,5,2.8s5.9-2.3,4.3-3.6l-4.7-4c-.2-3.2,2-4.6,3.6-5.5s4.8.2,7.2,0,5.7-1.4,6.8,2.7c2.1-.7,4.1-1.1,6.2-.7Z"/>
    <path class="st86" d="M1176.8,741.9l2.4-18.3.6,11.1c0,.9,1.8,1.7,1.5,2l-2.1,2.1c-1.1,1.1-1.2,3-2.5,3.1Z"/>
    <path class="st54" d="M47.1,674.3c-2.8-.8-5.3-2.5-7.4-4.5l7.3.2c.4,1.6.3,3,0,4.3Z"/>
    <path class="st168" d="M1240,1067c1.8,1.4,1.9,2.9,2.9,4.7-1.6.2-3.3-.2-4.5-1.4s-.6-2.1,0-2.7,1.2-.4,1.6-.6Z"/>
    <path class="st140" d="M833,897.7c-1.6,1.7-4,2.4-6.3,2.3-.4-.6-1.1-1.1-2.7-1.9,3-1,6-.1,9-.4Z"/>
    <path class="st2" d="M1181.8,699.8l2-10c.6,3.5,1.5,8.2-2,10Z"/>
    <path class="st140" d="M840.3,895.5c-1.5.5-3.2,1.8-5.2,2,0-1-.2-1.8.3-3.7,1.7,1.3,3.3,1.5,4.9,1.7Z"/>
    <path class="st137" d="M361.5,856.3l-3.2-.2c-.8,0-1.1-1.5-.6-2.5,1.2.7,3.2.7,3.8,2.7Z"/>
    <path class="st175" d="M1821.4,1046.3c.6.2,2-.3,2.8,1.3l-21.7.3-5.1-.3c.8-.8,2-1,3.7-1l20.3-.4Z"/>
    <path class="st141" d="M1795.2,1047.6l-16,.4c-1.7,0-2.8-.7-3.6-1.5h16c1.6.1,2.8.4,3.6,1.1Z"/>
    <path class="st144" d="M1670.5,1016.2c-.6.2-1.6-.6-3.6.8,1.8.6,4.2,1.4,4.1,4.4-4.1-1.4-5.9-4.9-4.7-7.5,1.3.8,3.1.9,4.2,2.3Z"/>
    <path class="st104" d="M1740.8,503.4l-3.8,2.5c0-2.1-.7-4.4.8-6.9,2.2,1.7,2,3.5,3,4.5Z"/>
    <path class="st64" d="M1530.9,746.1c-.6-3.6.5-6,1.2-8.9,0,3.1.5,6.4-1.2,8.9Z"/>
    <path class="st147" d="M1746.7,1043l-4.6.2h-2.1c-.6-.2-1.1-1.6.6-1.7,1.9.4,4.6-.3,6,1.5Z"/>
    <path class="st153" d="M1242.7,240.1c-.2.3-2.4.2-2.5-.3v-13.3c1.8,4.3,2,9,2.5,13.6Z"/>
    <path class="st16" d="M1814.6,75.1c0,.9-.1,2.1-.9,2.4-1.6.5-2.9.3-4.3-.2,1.5-.8,2.7-2.9,5.2-2.1Z"/>
    <path class="st102" d="M1833,63.1c-.9,1.9-2.5,2.1-4.1,2.6-.3-1,0-2.4.9-2.5h3.2Z"/>
    <path class="st145" d="M1925.1,9.8c-.8,1.5-2.3,2.4-3.9,2.6,0-.7.2-2.4.9-2.5h3.1Z"/>
    <path class="st173" d="M1607.5,194.2l-1.5,2.8c-.5.9-1.8.2-2.6-.7,1.1-.6,2-2.9,4.1-2.1Z"/>
    <path class="st103" d="M902.9,356.5v2.5c-.6.4-1.1.9-1.6,2.5-1-.9-1.1-2.5-.5-4s1.4-.8,2.1-1Z"/>
    <path d="M1234.5,459.3l.7-3.3c1.4-2.1,2.1-4.6,2-7.6v-1c6.9,3.6-1.3,9.8,0,17.1-2.7-1.4-2.7-3.2-2.7-5.2Z"/>
    <path class="st5" d="M1235.3,456c.6-2.5.8-5.2,2-7.6.2,2.1.3,4.4,2,5.8-1.8,1.6-2.9,1.8-4,1.8Z"/>
    <path class="st133" d="M1240.4,428.4c-.1.3-.5.7-.3,1.2-.4-.2-1.3,0-1.6.2s-.8,1.3-.7,1.9c.6,2.8-1.8,3.5-2.9,2.8-4.7-2.9,1.7-3.1,3.4-10.8,2.5,1.4,1.7,3.4,2.1,4.7Z"/>
    <path class="st39" d="M895.8,310.5c-.1-.3-.1-1-.1-1.3,1-1,1.2-2.3,1.7-3.4,1.9.6,3.6,1.9,3.1,2.5l-2.2,2.4c-.6,3.4.9,6.8-1.1,9.6-.5-3.7.5-7.3-1.5-9.8Z"/>
    <path class="st10" d="M893.3,356.6v-1.2c2.5-.4,2.4,1.3,2.6,3s-.2,3.5-2.3,2.8c-.6-1.1-.2-3.6-.3-4.7Z"/>
    <path class="st180" d="M483.6,544c-1.7,2.2-5.2,2.8-8.3.6,2.4-1.8,4.6-1.9,8.3-.6Z"/>
    <path class="st157" d="M630.3,590.3c-.4,2.5-8.4,3.8-8.7.6.8-2.2,6.7-2.2,8.7-.6Z"/>
    <path class="st185" d="M1239.9,296.9c0,3.5,1.1,6.6-1.2,9.6-2-3.4-1.1-6.2-1.1-9.7s2.2-1.5,2.3,0Z"/>
    <path class="st22" d="M352.1,840.4l-2.2,3c-1.8,1-2.1-.4-2.2-1-.3-1.7.5-3,1.9-3.3s2.7.4,2.5,1.4Z"/>
    <path class="st119" d="M855.5,888.4c-.5,2-4.7,3.1-6.1.5.6-1.3,3.4-2.1,6.1-.5Z"/>
    <path class="st90" d="M155.8,729.2c.8-.2,1.1,2.8,0,3.3s-1.6-.1-1.8-.7c-.2-.8.3-2.4,1.9-2.7Z"/>
    <path class="st144" d="M1668.6,1023.1c-.2,2.2-1.1,2.4-2.6,2.9s-2.3-1.3-2.8-2.7,1.3-2,2.3-2.5,2.1,1.2,3.1,2.3Z"/>
    <path class="st109" d="M1186.5,822.2c-.9.5-2.3,2.4-3.2,1.8-4.5-2.8-3.2-6.5-6.5-6.5l-.2-59.8c2.3.7,3.5,1.2,5.4.9-.7,2.3-.9,3.5-.7,4.4s3.4,1.8,3.3,2.8c-.3,2.3-4.6,6.3-2.2,9s4.5,4.5,4.5,8.8l-.2,38.7Z"/>
    <path class="st151" d="M1555.1,647.9c0,2.8-.3,5.3-1.7,8.5-1.5-2.8-1.3-5.5-1-9.2-.7-.2.8,0,2.7.7Z"/>
    <path class="st23" d="M1668.7,542.5c-1.6-1.4-2.5-2.6-3.2-5.8,1.9.5,4.7,1.6,3.2,5.8Z"/>
    <path class="st15" d="M1635.7,553c1.8,3.6,5.4,2.9,6.7,4.3s0,1.9-.5,1.7l-2-.9c-1.4-.6-2.6-.4-3.5-.8s-2.1-2.3-.7-4.3Z"/>
    <path class="st95" d="M1449.4,289c-.6,1.1-.6,3.2-1.8,4.2l-1.7-2.9c-.4-.7.8-3.1,3.4-1.3Z"/>
  </g>
</svg>