<?xml version="1.0" encoding="UTF-8"?>
<svg id="Layer_1" xmlns="http://www.w3.org/2000/svg" xmlns:xlink="http://www.w3.org/1999/xlink" version="1.1" viewBox="0 0 1920.3 1080">
  <!-- Generator: Adobe Illustrator 30.5.1, SVG Export Plug-In . SVG Version: 2.1.4 Build 3)  -->
  <defs>
    <style>
      .st0 {
        fill: url(#linear-gradient2);
      }

      .st1 {
        fill: url(#linear-gradient1);
      }

      .st2 {
        fill: url(#linear-gradient3);
      }

      .st3 {
        fill: url(#linear-gradient5);
      }

      .st4 {
        fill: url(#linear-gradient4);
      }

      .st5 {
        fill: url(#linear-gradient);
      }
    </style>
    <linearGradient id="linear-gradient" x1="1470.1" y1="545.4" x2="1917.7" y2="545.4" gradientUnits="userSpaceOnUse">
      <stop offset="0" stop-color="#000" stop-opacity="0"/>
      <stop offset="1" stop-color="#000"/>
    </linearGradient>
    <linearGradient id="linear-gradient1" x1="0" y1="540" x2="554.5" y2="540" xlink:href="#linear-gradient"/>
    <linearGradient id="linear-gradient2" x1="0" y1="406.3" x2="992.4" y2="406.3" gradientUnits="userSpaceOnUse">
      <stop offset=".2" stop-color="#000"/>
      <stop offset="1" stop-color="#3592ff"/>
    </linearGradient>
    <linearGradient id="linear-gradient3" x1="0" y1="245.8" x2="659.1" y2="245.8" gradientUnits="userSpaceOnUse">
      <stop offset=".2" stop-color="#000"/>
      <stop offset="1" stop-color="#9006ff"/>
    </linearGradient>
    <linearGradient id="linear-gradient4" x1="-31.5" y1="-7355.7" x2="1098.6" y2="-7355.7" gradientTransform="translate(-5006.507 -3306.0419) rotate(116.9734)" xlink:href="#linear-gradient2"/>
    <linearGradient id="linear-gradient5" x1="2.1" y1="-7794" x2="820.2" y2="-7794" gradientTransform="translate(-5006.507 -3306.0419) rotate(116.9734)" xlink:href="#linear-gradient3"/>
  </defs>
  <rect x=".3" width="1920" height="1080"/>
  <rect class="st5" x="1470.1" y="10.8" width="447.6" height="1069.2"/>
  <polygon class="st1" points=".3 0 554.5 0 554.5 1080 0 1080 0 298.3 .3 298.4 .3 0"/>
  <path class="st0" d="M976.8,104.5c-8.6-36.2-20.4-71.1-35.5-104.5h-18.7c16.2,34.5,28.8,70.8,37.7,108.4,16.7,70.6,19.6,142.5,8.7,213.9-11.4,73.9-37.2,143.8-76.8,208-39.6,64.2-90.5,118.6-151.5,161.9-56.4,40.1-119,69-186.2,86-2.9.8-5.9,1.5-8.8,2.2-70.6,16.7-142.5,19.6-213.9,8.7-73.9-11.4-143.9-37.2-208-76.8L.3,636.2l-.3-.2v20l.3.2,114.5,70.7c66.1,40.8,138.2,67.4,214.4,79.1,29.1,4.5,58.3,6.7,87.5,6.7,44.5,0,89-5.2,132.9-15.6,1.6-.4,3.3-.8,4.9-1.2,70.9-17.4,136.8-47.6,196.1-89.7,62.8-44.6,115.3-100.8,156.1-166.9,40.8-66.1,67.4-138.2,79.1-214.4,11.3-73.5,8.3-147.7-8.9-220.4Z"/>
  <g>
    <path d="M571.9,0H.3v298.4l-.3-.2v10l.3.2,214,132.1c46.8,28.9,98.7,42.6,149.9,42.6s137.4-25.2,190.2-72.1c20.4-18.1,38.4-39.4,53.5-63.7,69.7-112.9,51.4-255.4-36-347.2Z"/>
    <path class="st2" d="M651.1,129.2c-11.6-48.8-34.8-92.9-67.5-129.2h-23.5c36.5,36.1,62.4,81.8,74.5,133.1,17.1,72.1,5.1,146.6-33.9,209.7-13.1,21.1-28.6,40.2-46.2,56.8-34.9,32.9-78,56.2-126,67.6-72.1,17.1-146.6,5.1-209.7-33.9L.3,298.4l-.3-.2v20l.3.2,209.6,129.3c47.1,29,100.1,44,154.1,44s45.7-2.7,68.4-8c45.7-10.8,87.2-31.9,122.1-61.3,23.5-19.9,44-43.6,60.7-70.6,41.3-67,54.1-146,35.9-222.5Z"/>
  </g>
  <path class="st4" d="M1638.1,57l-17.8,10.8-4.9,3-145.3,88.5-125.5,76.5c-66.3,40.4-122.8,92.6-167.7,155.1-43.4,60.4-74.4,127.8-92,200.5-17.6,72.6-21,146.8-10.1,220.3,11.3,76.2,37.5,148.5,77.9,214.8,11.3,18.6,23.6,36.4,36.7,53.4h21.7c-15.9-19.6-30.6-40.4-43.9-62.2-39.2-64.4-64.7-134.5-75.6-208.5-10.6-71.4-7.3-143.4,9.9-213.8,17.1-70.5,47.2-135.9,89.3-194.5,43.6-60.7,98.4-111.3,162.8-150.6l116.7-71.1,145.3-88.5,37.6-22.9,17.8-10.8h-32.7Z"/>
  <g>
    <path d="M1917.7,233.2l-302.3,184.2-60.8,37c-34.3,20.9-62.6,47.8-84.5,78.7-34.5,48.6-52.8,106.8-52.8,165.9s13.5,102.1,41.8,148.5c3.5,5.7,7.2,11.3,11,16.7,36.8,51.9,88.3,88.2,145.3,106.7,76.5,24.7,162.8,17.2,236.8-27.9l65.4-39.9,2.6-1.6V231.6l-2.6,1.6Z"/>
    <path class="st3" d="M1917.7,223.2l-302.3,184.1-65.2,39.8c-31.3,19.1-58.3,43.3-80.1,71.5-24.9,32.3-43,69.7-52.9,110.5-18.6,76.4-6.2,155.5,34.7,222.7,5.6,9.2,11.7,18.1,18.2,26.6,36.8,48,87.2,83.1,145.3,101.3,6.1,1.9,12.3,3.6,18.5,5.1,23.2,5.6,46.7,8.4,70,8.4,53.4,0,105.9-14.6,152.7-43.1l61-37.2,2.6-1.6v-19.9l-2.6,1.6-69.9,42.6c-44.1,26.8-93.6,40.6-143.9,40.6s-44.1-2.6-66-7.9c-7.6-1.9-15.1-4-22.5-6.5-60-19.9-110.8-59.3-145.3-112.9-1.3-2-2.5-3.9-3.7-5.9-38.6-63.3-50.2-137.8-32.7-209.9,7.5-30.7,19.8-59.3,36.4-85.1,22.4-34.8,52.6-64.3,88.9-86.4l56.4-34.4,302.3-184.2,2.6-1.6v-19.9l-2.6,1.6Z"/>
  </g>
</svg>