<?xml version="1.0" encoding="UTF-8"?>
<svg id="Layer_1" xmlns="http://www.w3.org/2000/svg" version="1.1" viewBox="0 0 601.8 442.8">
  <!-- Generator: Adobe Illustrator 30.5.1, SVG Export Plug-In . SVG Version: 2.1.4 Build 3)  -->
  <defs>
    <style>
      .st0, .st1 {
        fill: #936eff;
      }

      .st2 {
        fill: #fff;
      }

      .st1 {
        display: none;
      }
    </style>
  </defs>
  <path class="st1" d="M324.4,277.1l-8.1,13.7c-7.2,12.2-25.4,12.2-32.6,0l-8.1-13.7c-6.3-10.7-9.5-16-14.5-18.9-5.1-2.9-11.4-3.1-24.2-3.3-18.8-.3-30.6-1.5-40.5-5.6-18.4-7.6-33-22.2-40.6-40.6-5.7-13.8-5.7-31.3-5.7-66.2v-15c0-49.1,0-73.7,11.1-91.7,6.2-10.1,14.7-18.6,24.8-24.8C203.8,0,228.4,0,277.5,0h45C371.6,0,396.1,0,414.2,11.1c10.1,6.2,18.6,14.7,24.8,24.8,11.1,18,11.1,42.6,11.1,91.7v15c0,34.9,0,52.4-5.7,66.2-7.6,18.4-22.2,33-40.6,40.6-9.9,4.1-21.7,5.3-40.5,5.6-12.8.2-19.1.3-24.2,3.3-5.1,2.9-8.2,8.3-14.5,18.9Z"/>
  <path id="_形状" data-name="形状" class="st0" d="M315,0c80.3,0,145.3,65.1,145.3,145.3s-65.1,145.3-145.3,145.3h-116.3c-16.1,0-29.1-13-29.1-29.1v-116.3C169.6,65.1,234.7,0,315,0ZM315,174.4h-43.6c-8,0-14.5,6.5-14.5,14.5s6.5,14.5,14.5,14.5h43.6c8,0,14.5-6.5,14.5-14.5s-6.5-14.5-14.5-14.5ZM358.6,116.3h-87.2c-8,0-14.5,6.5-14.5,14.5s5.6,13.6,12.8,14.4h1.7c0,0,87.2,0,87.2,0,8,0,14.5-6.5,14.5-14.5s-5.6-13.6-12.8-14.4h-1.7Z"/>
  <g>
    <path class="st2" d="M60.4,413.4c-6,5.5-13.7,8.3-23.1,8.3s-20.7-3.7-27.3-11.2c-6.6-7.5-10-17.7-10-30.7s3.8-24.9,11.3-32.5c6.6-6.6,14.9-10,25-10s23.5,4.4,29.8,13.3c3.5,5,5.3,10,5.6,15h-16.8c-1.1-3.9-2.5-6.8-4.2-8.8-3.1-3.5-7.6-5.2-13.6-5.2s-11,2.5-14.5,7.4c-3.5,4.9-5.3,11.9-5.3,21s1.9,15.8,5.6,20.3c3.7,4.5,8.5,6.8,14.2,6.8s10.4-1.9,13.5-5.8c1.7-2.1,3.1-5.2,4.3-9.4h16.7c-1.5,8.8-5.2,15.9-11.2,21.4Z"/>
    <path class="st2" d="M137,384.4v35h-15.9v-36.3c0-3.2-.5-5.8-1.6-7.8-1.4-2.8-4.1-4.2-8.1-4.2s-7.2,1.4-9.4,4.1c-2.1,2.8-3.2,6.7-3.2,11.8v32.3h-15.5v-80.3h15.5v28.5c2.3-3.5,4.9-5.9,7.8-7.2,3-1.4,6.1-2.1,9.4-2.1s7,.6,10,1.9c3,1.3,5.5,3.2,7.4,5.9,1.6,2.2,2.6,4.5,3,6.9.4,2.4.5,6.2.5,11.5Z"/>
    <path class="st2" d="M153.8,366.2c4.1-5.3,11.2-7.9,21.2-7.9s12.3,1.3,17.4,3.9c5.1,2.6,7.6,7.5,7.6,14.7v27.3c0,1.9,0,4.2.1,6.9.1,2,.4,3.4.9,4.2.5.7,1.3,1.3,2.3,1.8v2.3h-17c-.5-1.2-.8-2.3-1-3.4-.2-1.1-.3-2.3-.4-3.6-2.2,2.3-4.6,4.3-7.4,6-3.4,1.9-7.1,2.9-11.4,2.9s-9.9-1.5-13.4-4.6c-3.5-3.1-5.3-7.4-5.3-13.1s2.8-12.6,8.5-15.9c3.1-1.8,7.7-3.1,13.7-3.8l5.3-.7c2.9-.4,4.9-.8,6.2-1.4,2.2-.9,3.3-2.4,3.3-4.4s-.8-4.1-2.5-5.1-4.2-1.4-7.5-1.4-6.3.9-7.8,2.7c-1.1,1.3-1.8,3.2-2.2,5.5h-15c.3-5.2,1.8-9.5,4.4-12.9ZM165.4,408.1c1.5,1.2,3.2,1.8,5.4,1.8,3.4,0,6.4-1,9.3-3,2.8-2,4.3-5.6,4.4-10.8v-5.8c-1,.6-2,1.1-3,1.5-1,.4-2.4.7-4.1,1.1l-3.5.7c-3.3.6-5.6,1.3-7.1,2.1-2.4,1.4-3.6,3.6-3.6,6.6s.7,4.6,2.2,5.7Z"/>
    <path class="st2" d="M241.1,408.3v11.6l-7.4.3c-7.4.3-12.4-1-15.1-3.8-1.8-1.8-2.6-4.5-2.6-8.3v-36.7h-8.3v-11.1h8.3v-16.6h15.4v16.6h9.7v11.1h-9.7v31.5c0,2.4.3,4,.9,4.6.6.6,2.5.9,5.7.9s1,0,1.5,0c.5,0,1,0,1.6,0Z"/>
    <path class="st2" d="M312.8,407.7c4,0,7.2-.4,9.7-1.3,4.7-1.7,7.1-4.8,7.1-9.4s-1.2-4.7-3.5-6.2c-2.3-1.4-6-2.7-11-3.8l-8.5-1.9c-8.4-1.9-14.2-4-17.4-6.2-5.4-3.7-8.1-9.5-8.1-17.4s2.6-13.2,7.9-18c5.2-4.8,13-7.2,23.1-7.2s15.7,2.3,21.7,6.8c6,4.5,9.1,11,9.4,19.6h-16.2c-.3-4.8-2.4-8.3-6.3-10.3-2.6-1.3-5.9-2-9.8-2s-7.8.9-10.4,2.6c-2.6,1.8-3.9,4.2-3.9,7.3s1.3,5,3.8,6.5c1.6.9,5.1,2.1,10.5,3.3l13.9,3.3c6.1,1.5,10.7,3.4,13.8,5.9,4.8,3.8,7.2,9.3,7.2,16.5s-2.8,13.5-8.4,18.3-13.6,7.3-23.9,7.3-18.8-2.4-24.8-7.2c-6-4.8-9-11.4-9-19.8h16.1c.5,3.7,1.5,6.4,3,8.3,2.7,3.3,7.4,5,14.1,5Z"/>
    <path class="st2" d="M406.9,366.2c4.8,5.1,7.2,12.7,7.2,22.6s-2.4,18.5-7.1,24c-4.7,5.5-10.8,8.3-18.2,8.3s-8.7-1.2-11.8-3.6c-1.7-1.3-3.4-3.2-5-5.7v31.1h-15.4v-83.1h14.9v8.8c1.7-2.6,3.5-4.6,5.4-6.1,3.5-2.7,7.6-4,12.4-4,7,0,12.9,2.6,17.7,7.7ZM398,389.6c0-4.6-1-8.7-3.1-12.2-2.1-3.5-5.5-5.3-10.2-5.3s-9.5,2.7-11.6,8c-1.1,2.8-1.6,6.5-1.6,10.8,0,6.9,1.8,11.8,5.5,14.6,2.2,1.6,4.8,2.5,7.8,2.5,4.3,0,7.6-1.7,9.9-5s3.4-7.8,3.4-13.4Z"/>
    <path class="st2" d="M427.6,366.2c4.1-5.3,11.2-7.9,21.2-7.9s12.3,1.3,17.4,3.9c5.1,2.6,7.6,7.5,7.6,14.7v27.3c0,1.9,0,4.2.1,6.9.1,2,.4,3.4.9,4.2.5.7,1.3,1.3,2.3,1.8v2.3h-17c-.5-1.2-.8-2.3-1-3.4-.2-1.1-.3-2.3-.4-3.6-2.2,2.3-4.6,4.3-7.4,6-3.4,1.9-7.1,2.9-11.4,2.9s-9.9-1.5-13.4-4.6c-3.5-3.1-5.3-7.4-5.3-13.1s2.8-12.6,8.5-15.9c3.1-1.8,7.7-3.1,13.7-3.8l5.3-.7c2.9-.4,4.9-.8,6.2-1.4,2.2-.9,3.3-2.4,3.3-4.4s-.8-4.1-2.5-5.1-4.2-1.4-7.5-1.4-6.3.9-7.8,2.7c-1.1,1.3-1.8,3.2-2.2,5.5h-15c.3-5.2,1.8-9.5,4.4-12.9ZM439.2,408.1c1.5,1.2,3.2,1.8,5.4,1.8,3.4,0,6.4-1,9.3-3,2.8-2,4.3-5.6,4.4-10.8v-5.8c-1,.6-2,1.1-3,1.5-1,.4-2.4.7-4.1,1.1l-3.5.7c-3.3.6-5.6,1.3-7.1,2.1-2.4,1.4-3.6,3.6-3.6,6.6s.7,4.6,2.2,5.7Z"/>
    <path class="st2" d="M539.2,381.2h-16c-.3-2.2-1-4.2-2.2-6-1.8-2.4-4.5-3.6-8.1-3.6-5.2,0-8.8,2.6-10.8,7.8-1,2.8-1.5,6.5-1.5,11s.5,7.9,1.5,10.6c1.9,5,5.4,7.4,10.5,7.4s6.2-1,7.8-3,2.5-4.5,2.8-7.7h15.9c-.4,4.7-2.1,9.2-5.1,13.5-4.9,6.8-12.1,10.2-21.7,10.2s-16.6-2.8-21.2-8.5-6.8-13.1-6.8-22.1,2.5-18.2,7.5-23.9c5-5.7,11.9-8.5,20.7-8.5s13.6,1.7,18.3,5c4.8,3.4,7.6,9.3,8.5,17.8Z"/>
    <path class="st2" d="M601,401.9c-.4,3.5-2.2,7.1-5.5,10.8-5.1,5.8-12.2,8.7-21.4,8.7s-14.3-2.4-20.1-7.3-8.7-12.8-8.7-23.8,2.6-18.2,7.8-23.7,12-8.3,20.4-8.3,9.4.9,13.4,2.8c4,1.9,7.3,4.8,9.8,8.8,2.3,3.5,3.8,7.6,4.5,12.3.4,2.7.6,6.7.5,11.8h-40.8c.2,6,2.1,10.2,5.6,12.6,2.2,1.5,4.7,2.2,7.8,2.2s5.8-.9,7.8-2.7c1.1-1,2.1-2.4,2.9-4.1h15.9ZM585.6,383.6c-.3-4.1-1.5-7.2-3.7-9.4s-5-3.2-8.3-3.2-6.4,1.1-8.4,3.4c-2,2.3-3.2,5.3-3.7,9.2h24.2Z"/>
  </g>
</svg>