<?xml version="1.0" encoding="UTF-8"?>
<svg id="Layer_1" xmlns="http://www.w3.org/2000/svg" version="1.1" viewBox="0 0 290.7 290.7">
  <!-- Generator: Adobe Illustrator 30.5.1, SVG Export Plug-In . SVG Version: 2.1.4 Build 3)  -->
  <defs>
    <style>
      .st0 {
        fill: #936eff;
      }
    </style>
  </defs>
  <path id="_形状" data-name="形状" class="st0" d="M145.3,0c80.3,0,145.3,65.1,145.3,145.3s-65.1,145.3-145.3,145.3H29.1c-16.1,0-29.1-13-29.1-29.1v-116.3C0,65.1,65.1,0,145.3,0ZM145.3,174.4h-43.6c-8,0-14.5,6.5-14.5,14.5s6.5,14.5,14.5,14.5h43.6c8,0,14.5-6.5,14.5-14.5s-6.5-14.5-14.5-14.5ZM188.9,116.3h-87.2c-8,0-14.5,6.5-14.5,14.5s5.6,13.6,12.8,14.4h1.7c0,0,87.2,0,87.2,0,8,0,14.5-6.5,14.5-14.5s-5.6-13.6-12.8-14.4h-1.7Z"/>
</svg>